{
	"asset":{
		"generator":"Khronos glTF Blender I/O v4.1.63",
		"version":"2.0"
	},
	"scene":0,
	"scenes":[
		{
			"name":"Scene",
			"nodes":[
				0
			]
		}
	],
	"nodes":[
		{
			"mesh":0,
			"name":"ABS\u30d5\u30ec\u30fc\u30e0F_C (1)"
		}
	],
	"materials":[
		{
			"doubleSided":true,
			"name":"mat_2",
			"pbrMetallicRoughness":{
				"baseColorFactor":[
					0.8307698965072632,
					0.8307698965072632,
					0.8307698965072632,
					1
				],
				"metallicFactor":0.5,
				"roughnessFactor":0.5
			}
		},
		{
			"doubleSided":true,
			"name":"mat_6",
			"pbrMetallicRoughness":{
				"baseColorFactor":[
					0.44520121812820435,
					0,
					0,
					1
				],
				"metallicFactor":0.5,
				"roughnessFactor":0.5
			}
		},
		{
			"doubleSided":true,
			"name":"mat_4",
			"pbrMetallicRoughness":{
				"baseColorFactor":[
					0.9911020994186401,
					0.9911020994186401,
					1,
					1
				],
				"metallicFactor":0.5,
				"roughnessFactor":0.5
			}
		}
	],
	"meshes":[
		{
			"name":"ABS\u30d5\u30ec\u30fc\u30e0F_C (1)",
			"primitives":[
				{
					"attributes":{
						"POSITION":0,
						"NORMAL":1
					},
					"indices":2,
					"material":0
				},
				{
					"attributes":{
						"POSITION":3,
						"NORMAL":4
					},
					"indices":5,
					"material":1
				},
				{
					"attributes":{
						"POSITION":6,
						"NORMAL":7
					},
					"indices":8,
					"material":2
				}
			]
		}
	],
	"accessors":[
		{
			"bufferView":0,
			"componentType":5126,
			"count":13966,
			"max":[
				0.03271124139428139,
				0.06300053000450134,
				0.035001445561647415
			],
			"min":[
				-0.032716382294893265,
				-0.02699950337409973,
				-0.034998565912246704
			],
			"type":"VEC3"
		},
		{
			"bufferView":1,
			"componentType":5126,
			"count":13966,
			"type":"VEC3"
		},
		{
			"bufferView":2,
			"componentType":5123,
			"count":48042,
			"type":"SCALAR"
		},
		{
			"bufferView":3,
			"componentType":5126,
			"count":3064,
			"max":[
				0.019999178126454353,
				0.019961249083280563,
				0.03610144183039665
			],
			"min":[
				-0.020000813528895378,
				-0.019960220903158188,
				-0.03609856590628624
			],
			"type":"VEC3"
		},
		{
			"bufferView":4,
			"componentType":5126,
			"count":3064,
			"type":"VEC3"
		},
		{
			"bufferView":5,
			"componentType":5123,
			"count":12516,
			"type":"SCALAR"
		},
		{
			"bufferView":6,
			"componentType":5126,
			"count":7160,
			"max":[
				0.024922344833612442,
				0.06500053405761719,
				0.027601439505815506
			],
			"min":[
				-0.025000739842653275,
				-0.01899772509932518,
				-0.02759857103228569
			],
			"type":"VEC3"
		},
		{
			"bufferView":7,
			"componentType":5126,
			"count":7160,
			"type":"VEC3"
		},
		{
			"bufferView":8,
			"componentType":5123,
			"count":21888,
			"type":"SCALAR"
		}
	],
	"bufferViews":[
		{
			"buffer":0,
			"byteLength":167592,
			"byteOffset":0,
			"target":34962
		},
		{
			"buffer":0,
			"byteLength":167592,
			"byteOffset":167592,
			"target":34962
		},
		{
			"buffer":0,
			"byteLength":96084,
			"byteOffset":335184,
			"target":34963
		},
		{
			"buffer":0,
			"byteLength":36768,
			"byteOffset":431268,
			"target":34962
		},
		{
			"buffer":0,
			"byteLength":36768,
			"byteOffset":468036,
			"target":34962
		},
		{
			"buffer":0,
			"byteLength":25032,
			"byteOffset":504804,
			"target":34963
		},
		{
			"buffer":0,
			"byteLength":85920,
			"byteOffset":529836,
			"target":34962
		},
		{
			"buffer":0,
			"byteLength":85920,
			"byteOffset":615756,
			"target":34962
		},
		{
			"buffer":0,
			"byteLength":43776,
			"byteOffset":701676,
			"target":34963
		}
	],
	"buffers":[
		{
			"byteLength":745452,
			"uri":"Sciurus17_l2.bin"
		}
	]
}
