{
	"asset":{
		"generator":"Khronos glTF Blender I/O v4.1.63",
		"version":"2.0"
	},
	"scene":0,
	"scenes":[
		{
			"name":"Scene",
			"nodes":[
				0
			]
		}
	],
	"nodes":[
		{
			"mesh":0,
			"name":"CRANE-X7_HandA 20180417 (1)"
		}
	],
	"materials":[
		{
			"doubleSided":true,
			"name":"mat_9",
			"pbrMetallicRoughness":{
				"baseColorFactor":[
					0.6038273572921753,
					0,
					0,
					1
				],
				"metallicFactor":0.5,
				"roughnessFactor":0.5
			}
		},
		{
			"doubleSided":true,
			"name":"mat_7",
			"pbrMetallicRoughness":{
				"baseColorFactor":[
					0.0015176349552348256,
					0.0015176349552348256,
					0.0015176349552348256,
					1
				],
				"metallicFactor":0.5,
				"roughnessFactor":0.5
			}
		},
		{
			"doubleSided":true,
			"name":"mat_6",
			"pbrMetallicRoughness":{
				"baseColorFactor":[
					0.44520121812820435,
					0,
					0,
					1
				],
				"metallicFactor":0.5,
				"roughnessFactor":0.5
			}
		}
	],
	"meshes":[
		{
			"name":"CRANE-X7_HandA 20180417 (1)",
			"primitives":[
				{
					"attributes":{
						"POSITION":0,
						"NORMAL":1
					},
					"indices":2,
					"material":0
				},
				{
					"attributes":{
						"POSITION":3,
						"NORMAL":4
					},
					"indices":5,
					"material":1
				},
				{
					"attributes":{
						"POSITION":6,
						"NORMAL":7
					},
					"indices":8,
					"material":2
				}
			]
		}
	],
	"accessors":[
		{
			"bufferView":0,
			"componentType":5126,
			"count":6664,
			"max":[
				0.02749842405319214,
				0.042251139879226685,
				0.03025002032518387
			],
			"min":[
				-0.027501584962010384,
				0.0030010994523763657,
				-0.030251722782850266
			],
			"type":"VEC3"
		},
		{
			"bufferView":1,
			"componentType":5126,
			"count":6664,
			"type":"VEC3"
		},
		{
			"bufferView":2,
			"componentType":5123,
			"count":21336,
			"type":"SCALAR"
		},
		{
			"bufferView":3,
			"componentType":5126,
			"count":3630,
			"max":[
				0.027431298047304153,
				0.0030011218041181564,
				0.02999536134302616
			],
			"min":[
				-0.027480652555823326,
				1.1064112186431885e-06,
				-0.027481989935040474
			],
			"type":"VEC3"
		},
		{
			"bufferView":4,
			"componentType":5126,
			"count":3630,
			"type":"VEC3"
		},
		{
			"bufferView":5,
			"componentType":5123,
			"count":11004,
			"type":"SCALAR"
		},
		{
			"bufferView":6,
			"componentType":5126,
			"count":1754,
			"max":[
				0.026999665424227715,
				0.03700113296508789,
				0.024997806176543236
			],
			"min":[
				0.01899818517267704,
				0.011001134291291237,
				-0.02500222809612751
			],
			"type":"VEC3"
		},
		{
			"bufferView":7,
			"componentType":5126,
			"count":1754,
			"type":"VEC3"
		},
		{
			"bufferView":8,
			"componentType":5123,
			"count":5724,
			"type":"SCALAR"
		}
	],
	"bufferViews":[
		{
			"buffer":0,
			"byteLength":79968,
			"byteOffset":0,
			"target":34962
		},
		{
			"buffer":0,
			"byteLength":79968,
			"byteOffset":79968,
			"target":34962
		},
		{
			"buffer":0,
			"byteLength":42672,
			"byteOffset":159936,
			"target":34963
		},
		{
			"buffer":0,
			"byteLength":43560,
			"byteOffset":202608,
			"target":34962
		},
		{
			"buffer":0,
			"byteLength":43560,
			"byteOffset":246168,
			"target":34962
		},
		{
			"buffer":0,
			"byteLength":22008,
			"byteOffset":289728,
			"target":34963
		},
		{
			"buffer":0,
			"byteLength":21048,
			"byteOffset":311736,
			"target":34962
		},
		{
			"buffer":0,
			"byteLength":21048,
			"byteOffset":332784,
			"target":34962
		},
		{
			"buffer":0,
			"byteLength":11448,
			"byteOffset":353832,
			"target":34963
		}
	],
	"buffers":[
		{
			"byteLength":365280,
			"uri":"Sciurus17_l7.bin"
		}
	]
}
