{
	"asset":{
		"generator":"Khronos glTF Blender I/O v4.1.63",
		"version":"2.0"
	},
	"scene":0,
	"scenes":[
		{
			"name":"Scene",
			"nodes":[
				0
			]
		}
	],
	"nodes":[
		{
			"mesh":0,
			"name":"\u30d5\u30ec\u30fc\u30e0V"
		}
	],
	"materials":[
		{
			"doubleSided":true,
			"name":"mat_6",
			"pbrMetallicRoughness":{
				"baseColorFactor":[
					0.9911020994186401,
					0.9911020994186401,
					1,
					1
				],
				"metallicFactor":0.5,
				"roughnessFactor":0.5
			}
		},
		{
			"doubleSided":true,
			"name":"mat_0",
			"pbrMetallicRoughness":{
				"baseColorFactor":[
					0.8307698965072632,
					0.8307698965072632,
					0.8307698965072632,
					1
				],
				"metallicFactor":0.5,
				"roughnessFactor":0.5
			}
		},
		{
			"doubleSided":true,
			"name":"mat_9",
			"pbrMetallicRoughness":{
				"baseColorFactor":[
					0.838798999786377,
					0.8796223998069763,
					0.8631572127342224,
					1
				],
				"metallicFactor":0.5,
				"roughnessFactor":0.5
			}
		},
		{
			"doubleSided":true,
			"name":"mat_2",
			"pbrMetallicRoughness":{
				"baseColorFactor":[
					0.44520121812820435,
					0,
					0,
					1
				],
				"metallicFactor":0.5,
				"roughnessFactor":0.5
			}
		}
	],
	"meshes":[
		{
			"name":"\u30d5\u30ec\u30fc\u30e0V",
			"primitives":[
				{
					"attributes":{
						"POSITION":0,
						"NORMAL":1
					},
					"indices":2,
					"material":0
				},
				{
					"attributes":{
						"POSITION":3,
						"NORMAL":4
					},
					"indices":5,
					"material":1
				},
				{
					"attributes":{
						"POSITION":6,
						"NORMAL":7
					},
					"indices":8,
					"material":2
				},
				{
					"attributes":{
						"POSITION":9,
						"NORMAL":10
					},
					"indices":11,
					"material":3
				}
			]
		}
	],
	"accessors":[
		{
			"bufferView":0,
			"componentType":5126,
			"count":7618,
			"max":[
				0.027530942112207413,
				0.12304162979125977,
				0.022006241604685783
			],
			"min":[
				-0.027473419904708862,
				-0.018955927342176437,
				-0.021981002762913704
			],
			"type":"VEC3"
		},
		{
			"bufferView":1,
			"componentType":5126,
			"count":7618,
			"type":"VEC3"
		},
		{
			"bufferView":2,
			"componentType":5123,
			"count":21840,
			"type":"SCALAR"
		},
		{
			"bufferView":3,
			"componentType":5126,
			"count":18170,
			"max":[
				0.0350315123796463,
				0.13504160940647125,
				0.045012615621089935
			],
			"min":[
				-0.03497399389743805,
				-0.02694537863135338,
				-0.031091338023543358
			],
			"type":"VEC3"
		},
		{
			"bufferView":4,
			"componentType":5126,
			"count":18170,
			"type":"VEC3"
		},
		{
			"bufferView":5,
			"componentType":5123,
			"count":62379,
			"type":"SCALAR"
		},
		{
			"bufferView":6,
			"componentType":5126,
			"count":729,
			"max":[
				0.03503073751926422,
				0.03341921418905258,
				0.022955192252993584
			],
			"min":[
				0.027579203248023987,
				0.013171873055398464,
				0.003836631076410413
			],
			"type":"VEC3"
		},
		{
			"bufferView":7,
			"componentType":5126,
			"count":729,
			"type":"VEC3"
		},
		{
			"bufferView":8,
			"componentType":5123,
			"count":2292,
			"type":"SCALAR"
		},
		{
			"bufferView":9,
			"componentType":5126,
			"count":3096,
			"max":[
				0.03607998415827751,
				0.020033396780490875,
				0.019961198791861534
			],
			"min":[
				-0.03602248430252075,
				-0.019957955926656723,
				-0.01997220329940319
			],
			"type":"VEC3"
		},
		{
			"bufferView":10,
			"componentType":5126,
			"count":3096,
			"type":"VEC3"
		},
		{
			"bufferView":11,
			"componentType":5123,
			"count":12516,
			"type":"SCALAR"
		}
	],
	"bufferViews":[
		{
			"buffer":0,
			"byteLength":91416,
			"byteOffset":0,
			"target":34962
		},
		{
			"buffer":0,
			"byteLength":91416,
			"byteOffset":91416,
			"target":34962
		},
		{
			"buffer":0,
			"byteLength":43680,
			"byteOffset":182832,
			"target":34963
		},
		{
			"buffer":0,
			"byteLength":218040,
			"byteOffset":226512,
			"target":34962
		},
		{
			"buffer":0,
			"byteLength":218040,
			"byteOffset":444552,
			"target":34962
		},
		{
			"buffer":0,
			"byteLength":124758,
			"byteOffset":662592,
			"target":34963
		},
		{
			"buffer":0,
			"byteLength":8748,
			"byteOffset":787352,
			"target":34962
		},
		{
			"buffer":0,
			"byteLength":8748,
			"byteOffset":796100,
			"target":34962
		},
		{
			"buffer":0,
			"byteLength":4584,
			"byteOffset":804848,
			"target":34963
		},
		{
			"buffer":0,
			"byteLength":37152,
			"byteOffset":809432,
			"target":34962
		},
		{
			"buffer":0,
			"byteLength":37152,
			"byteOffset":846584,
			"target":34962
		},
		{
			"buffer":0,
			"byteLength":25032,
			"byteOffset":883736,
			"target":34963
		}
	],
	"buffers":[
		{
			"byteLength":908768,
			"uri":"Sciurus17_r4.bin"
		}
	]
}
