{
	"asset":{
		"generator":"Khronos glTF Blender I/O v4.1.63",
		"version":"2.0"
	},
	"scene":0,
	"scenes":[
		{
			"name":"Scene",
			"nodes":[
				0
			]
		}
	],
	"nodes":[
		{
			"mesh":0,
			"name":"CRANE-X7_HandA 20180417"
		}
	],
	"materials":[
		{
			"doubleSided":true,
			"name":"mat_5",
			"pbrMetallicRoughness":{
				"baseColorFactor":[
					0.6038273572921753,
					0,
					0,
					1
				],
				"metallicFactor":0.5,
				"roughnessFactor":0.5
			}
		},
		{
			"doubleSided":true,
			"name":"mat_2",
			"pbrMetallicRoughness":{
				"baseColorFactor":[
					0.44520121812820435,
					0,
					0,
					1
				],
				"metallicFactor":0.5,
				"roughnessFactor":0.5
			}
		},
		{
			"doubleSided":true,
			"name":"mat_7",
			"pbrMetallicRoughness":{
				"baseColorFactor":[
					0.0015176349552348256,
					0.0015176349552348256,
					0.0015176349552348256,
					1
				],
				"metallicFactor":0.5,
				"roughnessFactor":0.5
			}
		}
	],
	"meshes":[
		{
			"name":"CRANE-X7_HandA 20180417",
			"primitives":[
				{
					"attributes":{
						"POSITION":0,
						"NORMAL":1
					},
					"indices":2,
					"material":0
				},
				{
					"attributes":{
						"POSITION":3,
						"NORMAL":4
					},
					"indices":5,
					"material":1
				},
				{
					"attributes":{
						"POSITION":6,
						"NORMAL":7
					},
					"indices":8,
					"material":2
				}
			]
		}
	],
	"accessors":[
		{
			"bufferView":0,
			"componentType":5126,
			"count":6547,
			"max":[
				0.027499957010149956,
				0.042252346873283386,
				0.03025408275425434
			],
			"min":[
				-0.027500050142407417,
				0.003002348355948925,
				-0.030247274786233902
			],
			"type":"VEC3"
		},
		{
			"bufferView":1,
			"componentType":5126,
			"count":6547,
			"type":"VEC3"
		},
		{
			"bufferView":2,
			"componentType":5123,
			"count":21378,
			"type":"SCALAR"
		},
		{
			"bufferView":3,
			"componentType":5126,
			"count":1770,
			"max":[
				-0.018999876454472542,
				0.03700236976146698,
				0.024979421868920326
			],
			"min":[
				-0.027001021429896355,
				0.011002357117831707,
				-0.024970436468720436
			],
			"type":"VEC3"
		},
		{
			"bufferView":4,
			"componentType":5126,
			"count":1770,
			"type":"VEC3"
		},
		{
			"bufferView":5,
			"componentType":5123,
			"count":6276,
			"type":"SCALAR"
		},
		{
			"bufferView":6,
			"componentType":5126,
			"count":3644,
			"max":[
				0.027494732290506363,
				0.0030023609288036823,
				0.029997805133461952
			],
			"min":[
				-0.027498262003064156,
				2.3572883947053924e-06,
				-0.02739149145781994
			],
			"type":"VEC3"
		},
		{
			"bufferView":7,
			"componentType":5126,
			"count":3644,
			"type":"VEC3"
		},
		{
			"bufferView":8,
			"componentType":5123,
			"count":11004,
			"type":"SCALAR"
		}
	],
	"bufferViews":[
		{
			"buffer":0,
			"byteLength":78564,
			"byteOffset":0,
			"target":34962
		},
		{
			"buffer":0,
			"byteLength":78564,
			"byteOffset":78564,
			"target":34962
		},
		{
			"buffer":0,
			"byteLength":42756,
			"byteOffset":157128,
			"target":34963
		},
		{
			"buffer":0,
			"byteLength":21240,
			"byteOffset":199884,
			"target":34962
		},
		{
			"buffer":0,
			"byteLength":21240,
			"byteOffset":221124,
			"target":34962
		},
		{
			"buffer":0,
			"byteLength":12552,
			"byteOffset":242364,
			"target":34963
		},
		{
			"buffer":0,
			"byteLength":43728,
			"byteOffset":254916,
			"target":34962
		},
		{
			"buffer":0,
			"byteLength":43728,
			"byteOffset":298644,
			"target":34962
		},
		{
			"buffer":0,
			"byteLength":22008,
			"byteOffset":342372,
			"target":34963
		}
	],
	"buffers":[
		{
			"byteLength":364380,
			"uri":"Sciurus17_r7.bin"
		}
	]
}
