{
	"asset":{
		"generator":"Khronos glTF Blender I/O v4.1.63",
		"version":"2.0"
	},
	"scene":0,
	"scenes":[
		{
			"name":"Scene",
			"nodes":[
				0
			]
		}
	],
	"nodes":[
		{
			"mesh":0,
			"name":"CRANE-X7_HandD2 20180505"
		}
	],
	"materials":[
		{
			"doubleSided":true,
			"name":"mat_5",
			"pbrMetallicRoughness":{
				"baseColorFactor":[
					0.6038273572921753,
					0,
					0,
					1
				],
				"metallicFactor":0.5,
				"roughnessFactor":0.5
			}
		},
		{
			"doubleSided":true,
			"name":"mat_12",
			"pbrMetallicRoughness":{
				"baseColorFactor":[
					0.9130986332893372,
					0.9130986332893372,
					0.9215818643569946,
					1
				],
				"metallicFactor":0.5,
				"roughnessFactor":0.5
			}
		},
		{
			"doubleSided":true,
			"name":"mat_2",
			"pbrMetallicRoughness":{
				"baseColorFactor":[
					0.44520121812820435,
					0,
					0,
					1
				],
				"metallicFactor":0.5,
				"roughnessFactor":0.5
			}
		},
		{
			"doubleSided":true,
			"name":"mat_10",
			"pbrMetallicRoughness":{
				"baseColorFactor":[
					0.35153263807296753,
					0.35153263807296753,
					0.35153263807296753,
					1
				],
				"metallicFactor":0.5,
				"roughnessFactor":0.5
			}
		}
	],
	"meshes":[
		{
			"name":"CRANE-X7_HandD2 20180505",
			"primitives":[
				{
					"attributes":{
						"POSITION":0,
						"NORMAL":1
					},
					"indices":2,
					"material":0
				},
				{
					"attributes":{
						"POSITION":3,
						"NORMAL":4
					},
					"indices":5,
					"material":1
				},
				{
					"attributes":{
						"POSITION":6,
						"NORMAL":7
					},
					"indices":8,
					"material":2
				},
				{
					"attributes":{
						"POSITION":9,
						"NORMAL":10
					},
					"indices":11,
					"material":3
				}
			]
		}
	],
	"accessors":[
		{
			"bufferView":0,
			"componentType":5126,
			"count":2270,
			"max":[
				-0.016465622931718826,
				0.06000075861811638,
				0.012999058701097965
			],
			"min":[
				-0.024466898292303085,
				-0.013327271677553654,
				-0.013328971341252327
			],
			"type":"VEC3"
		},
		{
			"bufferView":1,
			"componentType":5126,
			"count":2270,
			"type":"VEC3"
		},
		{
			"bufferView":2,
			"componentType":5123,
			"count":6105,
			"type":"SCALAR"
		},
		{
			"bufferView":3,
			"componentType":5126,
			"count":690,
			"max":[
				-0.019465630874037743,
				0.017103953287005424,
				0.01299884170293808
			],
			"min":[
				-0.024466898292303085,
				-0.013327271677553654,
				-0.013329213485121727
			],
			"type":"VEC3"
		},
		{
			"bufferView":4,
			"componentType":5126,
			"count":690,
			"type":"VEC3"
		},
		{
			"bufferView":5,
			"componentType":5123,
			"count":1455,
			"type":"SCALAR"
		},
		{
			"bufferView":6,
			"componentType":5126,
			"count":1783,
			"max":[
				0.024534353986382484,
				0.06000076234340668,
				0.012906428426504135
			],
			"min":[
				-0.01736667938530445,
				-0.00995205994695425,
				-0.012003292329609394
			],
			"type":"VEC3"
		},
		{
			"bufferView":7,
			"componentType":5126,
			"count":1783,
			"type":"VEC3"
		},
		{
			"bufferView":8,
			"componentType":5123,
			"count":5274,
			"type":"SCALAR"
		},
		{
			"bufferView":9,
			"componentType":5126,
			"count":114,
			"max":[
				-0.009045294485986233,
				0.05649920552968979,
				0.007796810939908028
			],
			"min":[
				-0.009466608054935932,
				0.04096019268035889,
				-0.007743282709270716
			],
			"type":"VEC3"
		},
		{
			"bufferView":10,
			"componentType":5126,
			"count":114,
			"type":"VEC3"
		},
		{
			"bufferView":11,
			"componentType":5123,
			"count":474,
			"type":"SCALAR"
		}
	],
	"bufferViews":[
		{
			"buffer":0,
			"byteLength":27240,
			"byteOffset":0,
			"target":34962
		},
		{
			"buffer":0,
			"byteLength":27240,
			"byteOffset":27240,
			"target":34962
		},
		{
			"buffer":0,
			"byteLength":12210,
			"byteOffset":54480,
			"target":34963
		},
		{
			"buffer":0,
			"byteLength":8280,
			"byteOffset":66692,
			"target":34962
		},
		{
			"buffer":0,
			"byteLength":8280,
			"byteOffset":74972,
			"target":34962
		},
		{
			"buffer":0,
			"byteLength":2910,
			"byteOffset":83252,
			"target":34963
		},
		{
			"buffer":0,
			"byteLength":21396,
			"byteOffset":86164,
			"target":34962
		},
		{
			"buffer":0,
			"byteLength":21396,
			"byteOffset":107560,
			"target":34962
		},
		{
			"buffer":0,
			"byteLength":10548,
			"byteOffset":128956,
			"target":34963
		},
		{
			"buffer":0,
			"byteLength":1368,
			"byteOffset":139504,
			"target":34962
		},
		{
			"buffer":0,
			"byteLength":1368,
			"byteOffset":140872,
			"target":34962
		},
		{
			"buffer":0,
			"byteLength":948,
			"byteOffset":142240,
			"target":34963
		}
	],
	"buffers":[
		{
			"byteLength":143188,
			"uri":"Sciurus17_r8_2.bin"
		}
	]
}
