{
	"asset":{
		"generator":"Khronos glTF Blender I/O v4.1.63",
		"version":"2.0"
	},
	"scene":0,
	"scenes":[
		{
			"name":"Scene",
			"nodes":[
				1
			]
		}
	],
	"nodes":[
		{
			"mesh":0,
			"name":"CRANE-X7_Link6B 20180621"
		},
		{
			"children":[
				0
			],
			"name":"Arm_Right",
			"rotation":[
				-0.7071068286895752,
				0,
				0,
				0.7071068286895752
			]
		}
	],
	"materials":[
		{
			"doubleSided":true,
			"name":"mat_0",
			"pbrMetallicRoughness":{
				"baseColorFactor":[
					0.8307698965072632,
					0.8307698965072632,
					0.8307698965072632,
					1
				],
				"metallicFactor":0.5,
				"roughnessFactor":0.5
			}
		},
		{
			"doubleSided":true,
			"name":"mat_7",
			"pbrMetallicRoughness":{
				"baseColorFactor":[
					0.0015176349552348256,
					0.0015176349552348256,
					0.0015176349552348256,
					1
				],
				"metallicFactor":0.5,
				"roughnessFactor":0.5
			}
		}
	],
	"meshes":[
		{
			"name":"CRANE-X7_Link6B 20180621",
			"primitives":[
				{
					"attributes":{
						"POSITION":0,
						"NORMAL":1
					},
					"indices":2,
					"material":0
				},
				{
					"attributes":{
						"POSITION":3,
						"NORMAL":4
					},
					"indices":5,
					"material":1
				}
			]
		}
	],
	"accessors":[
		{
			"bufferView":0,
			"componentType":5126,
			"count":12429,
			"max":[
				0.029489144682884216,
				0.04246719926595688,
				0.021000772714614868
			],
			"min":[
				-0.026410870254039764,
				-0.04247633367776871,
				-0.042499247938394547
			],
			"type":"VEC3"
		},
		{
			"bufferView":1,
			"componentType":5126,
			"count":12429,
			"type":"VEC3"
		},
		{
			"bufferView":2,
			"componentType":5123,
			"count":39240,
			"type":"SCALAR"
		},
		{
			"bufferView":3,
			"componentType":5126,
			"count":3645,
			"max":[
				0.02748391404747963,
				0.027390358969569206,
				0.02210075594484806
			],
			"min":[
				-0.027509083971381187,
				-0.029998932033777237,
				0.019100740551948547
			],
			"type":"VEC3"
		},
		{
			"bufferView":4,
			"componentType":5126,
			"count":3645,
			"type":"VEC3"
		},
		{
			"bufferView":5,
			"componentType":5123,
			"count":11004,
			"type":"SCALAR"
		}
	],
	"bufferViews":[
		{
			"buffer":0,
			"byteLength":149148,
			"byteOffset":0,
			"target":34962
		},
		{
			"buffer":0,
			"byteLength":149148,
			"byteOffset":149148,
			"target":34962
		},
		{
			"buffer":0,
			"byteLength":78480,
			"byteOffset":298296,
			"target":34963
		},
		{
			"buffer":0,
			"byteLength":43740,
			"byteOffset":376776,
			"target":34962
		},
		{
			"buffer":0,
			"byteLength":43740,
			"byteOffset":420516,
			"target":34962
		},
		{
			"buffer":0,
			"byteLength":22008,
			"byteOffset":464256,
			"target":34963
		}
	],
	"buffers":[
		{
			"byteLength":486264,
			"uri":"Sciurus17_r6.bin"
		}
	]
}
