{
	"asset":{
		"generator":"Khronos glTF Blender I/O v4.1.63",
		"version":"2.0"
	},
	"scene":0,
	"scenes":[
		{
			"name":"Scene",
			"nodes":[
				0
			]
		}
	],
	"nodes":[
		{
			"mesh":0,
			"name":"Sciurus17_Left_Link5B 20180902",
			"rotation":[
				0,
				-0.7071068286895752,
				0,
				0.7071068286895752
			]
		}
	],
	"materials":[
		{
			"doubleSided":true,
			"name":"mat_2",
			"pbrMetallicRoughness":{
				"baseColorFactor":[
					0.8307698965072632,
					0.8307698965072632,
					0.8307698965072632,
					1
				],
				"metallicFactor":0.5,
				"roughnessFactor":0.5
			}
		},
		{
			"doubleSided":true,
			"name":"mat_4",
			"pbrMetallicRoughness":{
				"baseColorFactor":[
					0.9911020994186401,
					0.9911020994186401,
					1,
					1
				],
				"metallicFactor":0.5,
				"roughnessFactor":0.5
			}
		}
	],
	"meshes":[
		{
			"name":"Sciurus17_Left_Link5B 20180902",
			"primitives":[
				{
					"attributes":{
						"POSITION":0,
						"NORMAL":1
					},
					"indices":2,
					"material":0
				},
				{
					"attributes":{
						"POSITION":3,
						"NORMAL":4
					},
					"indices":5,
					"material":1
				}
			]
		}
	],
	"accessors":[
		{
			"bufferView":0,
			"componentType":5126,
			"count":15426,
			"max":[
				0.028484664857387543,
				0.14694172143936157,
				0.034692488610744476
			],
			"min":[
				-0.04798349365592003,
				0.0020000487565994263,
				-0.034307532012462616
			],
			"type":"VEC3"
		},
		{
			"bufferView":1,
			"componentType":5126,
			"count":15426,
			"type":"VEC3"
		},
		{
			"bufferView":2,
			"componentType":5123,
			"count":52203,
			"type":"SCALAR"
		},
		{
			"bufferView":3,
			"componentType":5126,
			"count":3281,
			"max":[
				0.021976981312036514,
				0.0020000897347927094,
				0.0221698135137558
			],
			"min":[
				-0.02197769470512867,
				1.0058283805847168e-07,
				-0.021784860640764236
			],
			"type":"VEC3"
		},
		{
			"bufferView":4,
			"componentType":5126,
			"count":3281,
			"type":"VEC3"
		},
		{
			"bufferView":5,
			"componentType":5123,
			"count":9936,
			"type":"SCALAR"
		}
	],
	"bufferViews":[
		{
			"buffer":0,
			"byteLength":185112,
			"byteOffset":0,
			"target":34962
		},
		{
			"buffer":0,
			"byteLength":185112,
			"byteOffset":185112,
			"target":34962
		},
		{
			"buffer":0,
			"byteLength":104406,
			"byteOffset":370224,
			"target":34963
		},
		{
			"buffer":0,
			"byteLength":39372,
			"byteOffset":474632,
			"target":34962
		},
		{
			"buffer":0,
			"byteLength":39372,
			"byteOffset":514004,
			"target":34962
		},
		{
			"buffer":0,
			"byteLength":19872,
			"byteOffset":553376,
			"target":34963
		}
	],
	"buffers":[
		{
			"byteLength":573248,
			"uri":"Sciurus17_l5.bin"
		}
	]
}
