{
	"asset":{
		"generator":"Khronos glTF Blender I/O v4.1.63",
		"version":"2.0"
	},
	"scene":0,
	"scenes":[
		{
			"name":"Scene",
			"nodes":[
				0
			]
		}
	],
	"nodes":[
		{
			"mesh":0,
			"name":"Sciurus17_Left_HandD2"
		}
	],
	"materials":[
		{
			"doubleSided":true,
			"name":"mat_6",
			"pbrMetallicRoughness":{
				"baseColorFactor":[
					0.44520121812820435,
					0,
					0,
					1
				],
				"metallicFactor":0.5,
				"roughnessFactor":0.5
			}
		},
		{
			"doubleSided":true,
			"name":"mat_5",
			"pbrMetallicRoughness":{
				"baseColorFactor":[
					0.35153263807296753,
					0.35153263807296753,
					0.35153263807296753,
					1
				],
				"metallicFactor":0.5,
				"roughnessFactor":0.5
			}
		}
	],
	"meshes":[
		{
			"name":"Sciurus17_Left_HandD2",
			"primitives":[
				{
					"attributes":{
						"POSITION":0,
						"NORMAL":1
					},
					"indices":2,
					"material":0
				},
				{
					"attributes":{
						"POSITION":3,
						"NORMAL":4
					},
					"indices":5,
					"material":1
				}
			]
		}
	],
	"accessors":[
		{
			"bufferView":0,
			"componentType":5126,
			"count":4606,
			"max":[
				0.02451169490814209,
				0.05999869108200073,
				0.012919359840452671
			],
			"min":[
				-0.02449934184551239,
				-0.012929099611938,
				-0.01291811466217041
			],
			"type":"VEC3"
		},
		{
			"bufferView":1,
			"componentType":5126,
			"count":4606,
			"type":"VEC3"
		},
		{
			"bufferView":2,
			"componentType":5123,
			"count":13662,
			"type":"SCALAR"
		},
		{
			"bufferView":3,
			"componentType":5126,
			"count":192,
			"max":[
				0.02451096847653389,
				0.05799868702888489,
				0.007803719956427813
			],
			"min":[
				0.009082366712391376,
				-0.011031857691705227,
				-0.011491658166050911
			],
			"type":"VEC3"
		},
		{
			"bufferView":4,
			"componentType":5126,
			"count":192,
			"type":"VEC3"
		},
		{
			"bufferView":5,
			"componentType":5123,
			"count":600,
			"type":"SCALAR"
		}
	],
	"bufferViews":[
		{
			"buffer":0,
			"byteLength":55272,
			"byteOffset":0,
			"target":34962
		},
		{
			"buffer":0,
			"byteLength":55272,
			"byteOffset":55272,
			"target":34962
		},
		{
			"buffer":0,
			"byteLength":27324,
			"byteOffset":110544,
			"target":34963
		},
		{
			"buffer":0,
			"byteLength":2304,
			"byteOffset":137868,
			"target":34962
		},
		{
			"buffer":0,
			"byteLength":2304,
			"byteOffset":140172,
			"target":34962
		},
		{
			"buffer":0,
			"byteLength":1200,
			"byteOffset":142476,
			"target":34963
		}
	],
	"buffers":[
		{
			"byteLength":143676,
			"uri":"Sciurus17_l8_2.bin"
		}
	]
}
