{
	"asset":{
		"generator":"Khronos glTF Blender I/O v4.1.63",
		"version":"2.0"
	},
	"scene":0,
	"scenes":[
		{
			"name":"Scene",
			"nodes":[
				0
			]
		}
	],
	"nodes":[
		{
			"mesh":0,
			"name":"\u30d5\u30ec\u30fc\u30e0M\r2",
			"rotation":[
				-1,
				0,
				0,
				4.371138828673793e-08
			]
		}
	],
	"materials":[
		{
			"doubleSided":true,
			"name":"mat_6",
			"pbrMetallicRoughness":{
				"baseColorFactor":[
					0.9911020994186401,
					0.9911020994186401,
					1,
					1
				],
				"metallicFactor":0.5,
				"roughnessFactor":0.5
			}
		},
		{
			"doubleSided":true,
			"name":"mat_0",
			"pbrMetallicRoughness":{
				"baseColorFactor":[
					0.8307698965072632,
					0.8307698965072632,
					0.8307698965072632,
					1
				],
				"metallicFactor":0.5,
				"roughnessFactor":0.5
			}
		}
	],
	"meshes":[
		{
			"name":"\u30d5\u30ec\u30fc\u30e0M\r2",
			"primitives":[
				{
					"attributes":{
						"POSITION":0,
						"NORMAL":1
					},
					"indices":2,
					"material":0
				},
				{
					"attributes":{
						"POSITION":3,
						"NORMAL":4
					},
					"indices":5,
					"material":1
				}
			]
		}
	],
	"accessors":[
		{
			"bufferView":0,
			"componentType":5126,
			"count":7184,
			"max":[
				-2.9700042432523333e-05,
				0.02748429775238037,
				0.027494540438055992
			],
			"min":[
				-0.08302968740463257,
				-0.02747112512588501,
				-0.02750546671450138
			],
			"type":"VEC3"
		},
		{
			"bufferView":1,
			"componentType":5126,
			"count":7184,
			"type":"VEC3"
		},
		{
			"bufferView":2,
			"componentType":5123,
			"count":21960,
			"type":"SCALAR"
		},
		{
			"bufferView":3,
			"componentType":5126,
			"count":7195,
			"max":[
				-0.002029704162850976,
				0.0339973047375679,
				0.033494528383016586
			],
			"min":[
				-0.09802970290184021,
				-0.03398215025663376,
				-0.033505458384752274
			],
			"type":"VEC3"
		},
		{
			"bufferView":4,
			"componentType":5126,
			"count":7195,
			"type":"VEC3"
		},
		{
			"bufferView":5,
			"componentType":5123,
			"count":24345,
			"type":"SCALAR"
		}
	],
	"bufferViews":[
		{
			"buffer":0,
			"byteLength":86208,
			"byteOffset":0,
			"target":34962
		},
		{
			"buffer":0,
			"byteLength":86208,
			"byteOffset":86208,
			"target":34962
		},
		{
			"buffer":0,
			"byteLength":43920,
			"byteOffset":172416,
			"target":34963
		},
		{
			"buffer":0,
			"byteLength":86340,
			"byteOffset":216336,
			"target":34962
		},
		{
			"buffer":0,
			"byteLength":86340,
			"byteOffset":302676,
			"target":34962
		},
		{
			"buffer":0,
			"byteLength":48690,
			"byteOffset":389016,
			"target":34963
		}
	],
	"buffers":[
		{
			"byteLength":437708,
			"uri":"Sciurus17_r1.bin"
		}
	]
}
