{
	"asset":{
		"generator":"Khronos glTF Blender I/O v4.1.63",
		"version":"2.0"
	},
	"scene":0,
	"scenes":[
		{
			"name":"Scene",
			"nodes":[
				0
			]
		}
	],
	"nodes":[
		{
			"mesh":0,
			"name":"Sciurus17_L_Link6B 20180621"
		}
	],
	"materials":[
		{
			"doubleSided":true,
			"name":"mat_2",
			"pbrMetallicRoughness":{
				"baseColorFactor":[
					0.8307698965072632,
					0.8307698965072632,
					0.8307698965072632,
					1
				],
				"metallicFactor":0.5,
				"roughnessFactor":0.5
			}
		},
		{
			"doubleSided":true,
			"name":"mat_7",
			"pbrMetallicRoughness":{
				"baseColorFactor":[
					0.0015176349552348256,
					0.0015176349552348256,
					0.0015176349552348256,
					1
				],
				"metallicFactor":0.5,
				"roughnessFactor":0.5
			}
		}
	],
	"meshes":[
		{
			"name":"Sciurus17_L_Link6B 20180621",
			"primitives":[
				{
					"attributes":{
						"POSITION":0,
						"NORMAL":1
					},
					"indices":2,
					"material":0
				},
				{
					"attributes":{
						"POSITION":3,
						"NORMAL":4
					},
					"indices":5,
					"material":1
				}
			]
		}
	],
	"accessors":[
		{
			"bufferView":0,
			"componentType":5126,
			"count":12428,
			"max":[
				0.02639986015856266,
				0.021000850945711136,
				0.04247405007481575
			],
			"min":[
				-0.02950015477836132,
				-0.042499177157878876,
				-0.04246949404478073
			],
			"type":"VEC3"
		},
		{
			"bufferView":1,
			"componentType":5126,
			"count":12428,
			"type":"VEC3"
		},
		{
			"bufferView":2,
			"componentType":5123,
			"count":39624,
			"type":"SCALAR"
		},
		{
			"bufferView":3,
			"componentType":5126,
			"count":3627,
			"max":[
				0.027496257796883583,
				0.02210082672536373,
				0.0299945380538702
			],
			"min":[
				-0.027497166767716408,
				0.019100813195109367,
				-0.02738453447818756
			],
			"type":"VEC3"
		},
		{
			"bufferView":4,
			"componentType":5126,
			"count":3627,
			"type":"VEC3"
		},
		{
			"bufferView":5,
			"componentType":5123,
			"count":11004,
			"type":"SCALAR"
		}
	],
	"bufferViews":[
		{
			"buffer":0,
			"byteLength":149136,
			"byteOffset":0,
			"target":34962
		},
		{
			"buffer":0,
			"byteLength":149136,
			"byteOffset":149136,
			"target":34962
		},
		{
			"buffer":0,
			"byteLength":79248,
			"byteOffset":298272,
			"target":34963
		},
		{
			"buffer":0,
			"byteLength":43524,
			"byteOffset":377520,
			"target":34962
		},
		{
			"buffer":0,
			"byteLength":43524,
			"byteOffset":421044,
			"target":34962
		},
		{
			"buffer":0,
			"byteLength":22008,
			"byteOffset":464568,
			"target":34963
		}
	],
	"buffers":[
		{
			"byteLength":486576,
			"uri":"Sciurus17_l6.bin"
		}
	]
}
