{
	"asset":{
		"generator":"Khronos glTF Blender I/O v4.1.63",
		"version":"2.0"
	},
	"scene":0,
	"scenes":[
		{
			"name":"Scene",
			"nodes":[
				0
			]
		}
	],
	"nodes":[
		{
			"mesh":0,
			"name":"Sciurus17_Left_Link3A 20180612"
		}
	],
	"materials":[
		{
			"doubleSided":true,
			"name":"mat_2",
			"pbrMetallicRoughness":{
				"baseColorFactor":[
					0.8307698965072632,
					0.8307698965072632,
					0.8307698965072632,
					1
				],
				"metallicFactor":0.5,
				"roughnessFactor":0.5
			}
		},
		{
			"doubleSided":true,
			"name":"mat_4",
			"pbrMetallicRoughness":{
				"baseColorFactor":[
					0.9911020994186401,
					0.9911020994186401,
					1,
					1
				],
				"metallicFactor":0.5,
				"roughnessFactor":0.5
			}
		}
	],
	"meshes":[
		{
			"name":"Sciurus17_Left_Link3A 20180612",
			"primitives":[
				{
					"attributes":{
						"POSITION":0,
						"NORMAL":1
					},
					"indices":2,
					"material":0
				},
				{
					"attributes":{
						"POSITION":3,
						"NORMAL":4
					},
					"indices":5,
					"material":1
				}
			]
		}
	],
	"accessors":[
		{
			"bufferView":0,
			"componentType":5126,
			"count":14498,
			"max":[
				0.03404699265956879,
				0.23291726410388947,
				0.06000059098005295
			],
			"min":[
				-0.03405559062957764,
				6.705522537231445e-08,
				-0.03410785645246506
			],
			"type":"VEC3"
		},
		{
			"bufferView":1,
			"componentType":5126,
			"count":14498,
			"type":"VEC3"
		},
		{
			"bufferView":2,
			"componentType":5123,
			"count":47763,
			"type":"SCALAR"
		},
		{
			"bufferView":3,
			"componentType":5126,
			"count":7160,
			"max":[
				0.0274996068328619,
				0.21799497306346893,
				0.024978118017315865
			],
			"min":[
				-0.027500402182340622,
				0.01200009137392044,
				-0.024981221184134483
			],
			"type":"VEC3"
		},
		{
			"bufferView":4,
			"componentType":5126,
			"count":7160,
			"type":"VEC3"
		},
		{
			"bufferView":5,
			"componentType":5123,
			"count":21888,
			"type":"SCALAR"
		}
	],
	"bufferViews":[
		{
			"buffer":0,
			"byteLength":173976,
			"byteOffset":0,
			"target":34962
		},
		{
			"buffer":0,
			"byteLength":173976,
			"byteOffset":173976,
			"target":34962
		},
		{
			"buffer":0,
			"byteLength":95526,
			"byteOffset":347952,
			"target":34963
		},
		{
			"buffer":0,
			"byteLength":85920,
			"byteOffset":443480,
			"target":34962
		},
		{
			"buffer":0,
			"byteLength":85920,
			"byteOffset":529400,
			"target":34962
		},
		{
			"buffer":0,
			"byteLength":43776,
			"byteOffset":615320,
			"target":34963
		}
	],
	"buffers":[
		{
			"byteLength":659096,
			"uri":"Sciurus17_l3.bin"
		}
	]
}
