{
	"asset":{
		"generator":"Khronos glTF Blender I/O v4.1.63",
		"version":"2.0"
	},
	"scene":0,
	"scenes":[
		{
			"name":"Scene",
			"nodes":[
				0
			]
		}
	],
	"nodes":[
		{
			"mesh":0,
			"name":"\u30d5\u30ec\u30fc\u30e0V"
		}
	],
	"materials":[
		{
			"doubleSided":true,
			"name":"mat_6",
			"pbrMetallicRoughness":{
				"baseColorFactor":[
					0.9911020994186401,
					0.9911020994186401,
					1,
					1
				],
				"metallicFactor":0.5,
				"roughnessFactor":0.5
			}
		},
		{
			"doubleSided":true,
			"name":"mat_0",
			"pbrMetallicRoughness":{
				"baseColorFactor":[
					0.8307698965072632,
					0.8307698965072632,
					0.8307698965072632,
					1
				],
				"metallicFactor":0.5,
				"roughnessFactor":0.5
			}
		}
	],
	"meshes":[
		{
			"name":"\u30d5\u30ec\u30fc\u30e0V",
			"primitives":[
				{
					"attributes":{
						"POSITION":0,
						"NORMAL":1
					},
					"indices":2,
					"material":0
				},
				{
					"attributes":{
						"POSITION":3,
						"NORMAL":4
					},
					"indices":5,
					"material":1
				}
			]
		}
	],
	"accessors":[
		{
			"bufferView":0,
			"componentType":5126,
			"count":3264,
			"max":[
				0.021989932283759117,
				0.002007570117712021,
				0.02198534645140171
			],
			"min":[
				-0.02199717052280903,
				7.554888725280762e-06,
				-0.022001774981617928
			],
			"type":"VEC3"
		},
		{
			"bufferView":1,
			"componentType":5126,
			"count":3264,
			"type":"VEC3"
		},
		{
			"bufferView":2,
			"componentType":5123,
			"count":9936,
			"type":"SCALAR"
		},
		{
			"bufferView":3,
			"componentType":5126,
			"count":16561,
			"max":[
				0.03449639305472374,
				0.1469491720199585,
				0.028476784005761147
			],
			"min":[
				-0.03450363501906395,
				0.0020075030624866486,
				-0.04799136891961098
			],
			"type":"VEC3"
		},
		{
			"bufferView":4,
			"componentType":5126,
			"count":16561,
			"type":"VEC3"
		},
		{
			"bufferView":5,
			"componentType":5123,
			"count":52245,
			"type":"SCALAR"
		}
	],
	"bufferViews":[
		{
			"buffer":0,
			"byteLength":39168,
			"byteOffset":0,
			"target":34962
		},
		{
			"buffer":0,
			"byteLength":39168,
			"byteOffset":39168,
			"target":34962
		},
		{
			"buffer":0,
			"byteLength":19872,
			"byteOffset":78336,
			"target":34963
		},
		{
			"buffer":0,
			"byteLength":198732,
			"byteOffset":98208,
			"target":34962
		},
		{
			"buffer":0,
			"byteLength":198732,
			"byteOffset":296940,
			"target":34962
		},
		{
			"buffer":0,
			"byteLength":104490,
			"byteOffset":495672,
			"target":34963
		}
	],
	"buffers":[
		{
			"byteLength":600164,
			"uri":"Sciurus17_r5.bin"
		}
	]
}
