{
	"asset":{
		"generator":"Khronos glTF Blender I/O v4.1.63",
		"version":"2.0"
	},
	"scene":0,
	"scenes":[
		{
			"name":"Scene",
			"nodes":[
				1
			]
		}
	],
	"nodes":[
		{
			"mesh":0,
			"name":"\u30d5\u30ec\u30fc\u30e0N",
			"translation":[
				0,
				0,
				-9.999999747378752e-05
			]
		},
		{
			"children":[
				0
			],
			"name":"Arm_Right"
		}
	],
	"materials":[
		{
			"doubleSided":true,
			"name":"mat_6",
			"pbrMetallicRoughness":{
				"baseColorFactor":[
					0.9911020994186401,
					0.9911020994186401,
					1,
					1
				],
				"metallicFactor":0.5,
				"roughnessFactor":0.5
			}
		},
		{
			"doubleSided":true,
			"name":"mat_0",
			"pbrMetallicRoughness":{
				"baseColorFactor":[
					0.8307698965072632,
					0.8307698965072632,
					0.8307698965072632,
					1
				],
				"metallicFactor":0.5,
				"roughnessFactor":0.5
			}
		}
	],
	"meshes":[
		{
			"name":"\u30d5\u30ec\u30fc\u30e0N",
			"primitives":[
				{
					"attributes":{
						"POSITION":0,
						"NORMAL":1
					},
					"indices":2,
					"material":0
				},
				{
					"attributes":{
						"POSITION":3,
						"NORMAL":4
					},
					"indices":5,
					"material":1
				}
			]
		}
	],
	"accessors":[
		{
			"bufferView":0,
			"componentType":5126,
			"count":8139,
			"max":[
				0.02753150649368763,
				0.21797698736190796,
				0.025116948410868645
			],
			"min":[
				-0.0274954941123724,
				0.012006583623588085,
				-0.024809686467051506
			],
			"type":"VEC3"
		},
		{
			"bufferView":1,
			"componentType":5126,
			"count":8139,
			"type":"VEC3"
		},
		{
			"bufferView":2,
			"componentType":5123,
			"count":21888,
			"type":"SCALAR"
		},
		{
			"bufferView":3,
			"componentType":5126,
			"count":15284,
			"max":[
				0.03407309949398041,
				0.2329237461090088,
				0.06011714041233063
			],
			"min":[
				-0.03402896597981453,
				6.588387805095408e-06,
				-0.03399128466844559
			],
			"type":"VEC3"
		},
		{
			"bufferView":4,
			"componentType":5126,
			"count":15284,
			"type":"VEC3"
		},
		{
			"bufferView":5,
			"componentType":5123,
			"count":47883,
			"type":"SCALAR"
		}
	],
	"bufferViews":[
		{
			"buffer":0,
			"byteLength":97668,
			"byteOffset":0,
			"target":34962
		},
		{
			"buffer":0,
			"byteLength":97668,
			"byteOffset":97668,
			"target":34962
		},
		{
			"buffer":0,
			"byteLength":43776,
			"byteOffset":195336,
			"target":34963
		},
		{
			"buffer":0,
			"byteLength":183408,
			"byteOffset":239112,
			"target":34962
		},
		{
			"buffer":0,
			"byteLength":183408,
			"byteOffset":422520,
			"target":34962
		},
		{
			"buffer":0,
			"byteLength":95766,
			"byteOffset":605928,
			"target":34963
		}
	],
	"buffers":[
		{
			"byteLength":701696,
			"uri":"Sciurus17_r3.bin"
		}
	]
}
