{
	"asset":{
		"generator":"Khronos glTF Blender I/O v4.1.63",
		"version":"2.0"
	},
	"scene":0,
	"scenes":[
		{
			"name":"Scene",
			"nodes":[
				0
			]
		}
	],
	"nodes":[
		{
			"mesh":0,
			"name":"Sciurus17_BodyA1 20180625",
			"rotation":[
				0,
				-0.7071068286895752,
				0,
				0.7071068286895752
			]
		}
	],
	"materials":[
		{
			"doubleSided":true,
			"name":"mat_5",
			"pbrMetallicRoughness":{
				"baseColorFactor":[
					0.8307698965072632,
					0.8307698965072632,
					0.8307698965072632,
					1
				],
				"metallicFactor":0.5,
				"roughnessFactor":0.5
			}
		},
		{
			"doubleSided":true,
			"name":"mat_3",
			"pbrMetallicRoughness":{
				"baseColorFactor":[
					0.9911020994186401,
					0.9911020994186401,
					1,
					1
				],
				"metallicFactor":0.5,
				"roughnessFactor":0.5
			}
		},
		{
			"doubleSided":true,
			"name":"mat_8",
			"pbrMetallicRoughness":{
				"baseColorFactor":[
					0.0015176349552348256,
					0.0015176349552348256,
					0.0015176349552348256,
					1
				],
				"metallicFactor":0.5,
				"roughnessFactor":0.5
			}
		},
		{
			"doubleSided":true,
			"name":"mat_0.001",
			"pbrMetallicRoughness":{
				"baseColorFactor":[
					0.8307698965072632,
					0.8307698965072632,
					0.8307698965072632,
					1
				],
				"metallicFactor":0.5,
				"roughnessFactor":0.5
			}
		},
		{
			"doubleSided":true,
			"name":"mat_6.001",
			"pbrMetallicRoughness":{
				"baseColorFactor":[
					0.9911020994186401,
					0.9911020994186401,
					1,
					1
				],
				"metallicFactor":0.5,
				"roughnessFactor":0.5
			}
		},
		{
			"doubleSided":true,
			"name":"mat_4.002",
			"pbrMetallicRoughness":{
				"baseColorFactor":[
					0.9911020994186401,
					0.9911020994186401,
					1,
					1
				],
				"metallicFactor":0.5,
				"roughnessFactor":0.5
			}
		},
		{
			"doubleSided":true,
			"name":"mat_2.002",
			"pbrMetallicRoughness":{
				"baseColorFactor":[
					0.8307698965072632,
					0.8307698965072632,
					0.8307698965072632,
					1
				],
				"metallicFactor":0.5,
				"roughnessFactor":0.5
			}
		}
	],
	"meshes":[
		{
			"name":"Sciurus17_BodyA1 20180625",
			"primitives":[
				{
					"attributes":{
						"POSITION":0,
						"NORMAL":1
					},
					"indices":2,
					"material":0
				},
				{
					"attributes":{
						"POSITION":3,
						"NORMAL":4
					},
					"indices":5,
					"material":1
				},
				{
					"attributes":{
						"POSITION":6,
						"NORMAL":7
					},
					"indices":8,
					"material":2
				},
				{
					"attributes":{
						"POSITION":9,
						"NORMAL":10
					},
					"indices":11,
					"material":3
				},
				{
					"attributes":{
						"POSITION":12,
						"NORMAL":13
					},
					"indices":14,
					"material":4
				},
				{
					"attributes":{
						"POSITION":15,
						"NORMAL":16
					},
					"indices":17,
					"material":5
				},
				{
					"attributes":{
						"POSITION":18,
						"NORMAL":19
					},
					"indices":20,
					"material":6
				}
			]
		}
	],
	"accessors":[
		{
			"bufferView":0,
			"componentType":5126,
			"count":28043,
			"max":[
				0.1408156007528305,
				0.48500001430511475,
				0.05450000613927841
			],
			"min":[
				-0.05000000074505806,
				0.13349999487400055,
				-0.05450000613927841
			],
			"type":"VEC3"
		},
		{
			"bufferView":1,
			"componentType":5126,
			"count":28043,
			"type":"VEC3"
		},
		{
			"bufferView":2,
			"componentType":5123,
			"count":88860,
			"type":"SCALAR"
		},
		{
			"bufferView":3,
			"componentType":5126,
			"count":7196,
			"max":[
				0.10281851887702942,
				0.4729999899864197,
				0.03274904191493988
			],
			"min":[
				-0.03271239250898361,
				0.1314999908208847,
				-0.0326630100607872
			],
			"type":"VEC3"
		},
		{
			"bufferView":4,
			"componentType":5126,
			"count":7196,
			"type":"VEC3"
		},
		{
			"bufferView":5,
			"componentType":5123,
			"count":20028,
			"type":"SCALAR"
		},
		{
			"bufferView":6,
			"componentType":5126,
			"count":1074,
			"max":[
				0.13363604247570038,
				0.43796250224113464,
				0.052500005811452866
			],
			"min":[
				-0.0034735447261482477,
				0.342284619808197,
				-0.052500005811452866
			],
			"type":"VEC3"
		},
		{
			"bufferView":7,
			"componentType":5126,
			"count":1074,
			"type":"VEC3"
		},
		{
			"bufferView":8,
			"componentType":5123,
			"count":2178,
			"type":"SCALAR"
		},
		{
			"bufferView":9,
			"componentType":5126,
			"count":7435,
			"max":[
				0.1403467208147049,
				0.47972163558006287,
				0.11050000041723251
			],
			"min":[
				0.021311361342668533,
				0.36027833819389343,
				0.05000000074505806
			],
			"type":"VEC3"
		},
		{
			"bufferView":10,
			"componentType":5126,
			"count":7435,
			"type":"VEC3"
		},
		{
			"bufferView":11,
			"componentType":5123,
			"count":27090,
			"type":"SCALAR"
		},
		{
			"bufferView":12,
			"componentType":5126,
			"count":3325,
			"max":[
				0.10838986933231354,
				0.44747769832611084,
				0.09849999845027924
			],
			"min":[
				0.05347902700304985,
				0.39252227544784546,
				0.09649999439716339
			],
			"type":"VEC3"
		},
		{
			"bufferView":13,
			"componentType":5126,
			"count":3325,
			"type":"VEC3"
		},
		{
			"bufferView":14,
			"componentType":5123,
			"count":10056,
			"type":"SCALAR"
		},
		{
			"bufferView":15,
			"componentType":5126,
			"count":3371,
			"max":[
				0.10847903788089752,
				0.44747769832611084,
				-0.09649999439716339
			],
			"min":[
				0.05356820672750473,
				0.39252227544784546,
				-0.09849999845027924
			],
			"type":"VEC3"
		},
		{
			"bufferView":16,
			"componentType":5126,
			"count":3371,
			"type":"VEC3"
		},
		{
			"bufferView":17,
			"componentType":5123,
			"count":10056,
			"type":"SCALAR"
		},
		{
			"bufferView":18,
			"componentType":5126,
			"count":7436,
			"max":[
				0.1403467208147049,
				0.47972163558006287,
				-0.05000000074505806
			],
			"min":[
				0.021311361342668533,
				0.36027833819389343,
				-0.11050000041723251
			],
			"type":"VEC3"
		},
		{
			"bufferView":19,
			"componentType":5126,
			"count":7436,
			"type":"VEC3"
		},
		{
			"bufferView":20,
			"componentType":5123,
			"count":27072,
			"type":"SCALAR"
		}
	],
	"bufferViews":[
		{
			"buffer":0,
			"byteLength":336516,
			"byteOffset":0,
			"target":34962
		},
		{
			"buffer":0,
			"byteLength":336516,
			"byteOffset":336516,
			"target":34962
		},
		{
			"buffer":0,
			"byteLength":177720,
			"byteOffset":673032,
			"target":34963
		},
		{
			"buffer":0,
			"byteLength":86352,
			"byteOffset":850752,
			"target":34962
		},
		{
			"buffer":0,
			"byteLength":86352,
			"byteOffset":937104,
			"target":34962
		},
		{
			"buffer":0,
			"byteLength":40056,
			"byteOffset":1023456,
			"target":34963
		},
		{
			"buffer":0,
			"byteLength":12888,
			"byteOffset":1063512,
			"target":34962
		},
		{
			"buffer":0,
			"byteLength":12888,
			"byteOffset":1076400,
			"target":34962
		},
		{
			"buffer":0,
			"byteLength":4356,
			"byteOffset":1089288,
			"target":34963
		},
		{
			"buffer":0,
			"byteLength":89220,
			"byteOffset":1093644,
			"target":34962
		},
		{
			"buffer":0,
			"byteLength":89220,
			"byteOffset":1182864,
			"target":34962
		},
		{
			"buffer":0,
			"byteLength":54180,
			"byteOffset":1272084,
			"target":34963
		},
		{
			"buffer":0,
			"byteLength":39900,
			"byteOffset":1326264,
			"target":34962
		},
		{
			"buffer":0,
			"byteLength":39900,
			"byteOffset":1366164,
			"target":34962
		},
		{
			"buffer":0,
			"byteLength":20112,
			"byteOffset":1406064,
			"target":34963
		},
		{
			"buffer":0,
			"byteLength":40452,
			"byteOffset":1426176,
			"target":34962
		},
		{
			"buffer":0,
			"byteLength":40452,
			"byteOffset":1466628,
			"target":34962
		},
		{
			"buffer":0,
			"byteLength":20112,
			"byteOffset":1507080,
			"target":34963
		},
		{
			"buffer":0,
			"byteLength":89232,
			"byteOffset":1527192,
			"target":34962
		},
		{
			"buffer":0,
			"byteLength":89232,
			"byteOffset":1616424,
			"target":34962
		},
		{
			"buffer":0,
			"byteLength":54144,
			"byteOffset":1705656,
			"target":34963
		}
	],
	"buffers":[
		{
			"byteLength":1759800,
			"uri":"Sciurus17_body.bin"
		}
	]
}
