{
	"asset":{
		"generator":"Khronos glTF Blender I/O v4.1.63",
		"version":"2.0"
	},
	"scene":0,
	"scenes":[
		{
			"name":"Scene",
			"nodes":[
				0
			]
		}
	],
	"nodes":[
		{
			"mesh":0,
			"name":"\u982d\u90e8H_A201\r80711B",
			"rotation":[
				0,
				-0.7071068286895752,
				0,
				0.7071068286895752
			],
			"translation":[
				0,
				-0.0008449999731965363,
				0.0015699999639764428
			]
		}
	],
	"materials":[
		{
			"doubleSided":true,
			"name":"mat_5",
			"pbrMetallicRoughness":{
				"baseColorFactor":[
					0.8307698965072632,
					0.8307698965072632,
					0.8307698965072632,
					1
				],
				"metallicFactor":0.5,
				"roughnessFactor":0.5
			}
		},
		{
			"doubleSided":true,
			"name":"mat_0",
			"pbrMetallicRoughness":{
				"baseColorFactor":[
					0.6038273572921753,
					0,
					0,
					1
				],
				"metallicFactor":0.5,
				"roughnessFactor":0.5
			}
		},
		{
			"doubleSided":true,
			"name":"mat_1",
			"pbrMetallicRoughness":{
				"baseColorFactor":[
					0.5209956169128418,
					0.5209956169128418,
					0.5209956169128418,
					1
				],
				"metallicFactor":0.5,
				"roughnessFactor":0.5
			}
		},
		{
			"doubleSided":true,
			"name":"mat_14",
			"pbrMetallicRoughness":{
				"baseColorFactor":[
					0.44520121812820435,
					0,
					0,
					1
				],
				"metallicFactor":0.5,
				"roughnessFactor":0.5
			}
		},
		{
			"doubleSided":true,
			"name":"mat_3",
			"pbrMetallicRoughness":{
				"baseColorFactor":[
					0.9911020994186401,
					0.9911020994186401,
					1,
					1
				],
				"metallicFactor":0.5,
				"roughnessFactor":0.5
			}
		}
	],
	"meshes":[
		{
			"name":"\u982d\u90e8H_A201\r80711B",
			"primitives":[
				{
					"attributes":{
						"POSITION":0,
						"NORMAL":1
					},
					"indices":2,
					"material":0
				},
				{
					"attributes":{
						"POSITION":3,
						"NORMAL":4
					},
					"indices":5,
					"material":1
				},
				{
					"attributes":{
						"POSITION":6,
						"NORMAL":7
					},
					"indices":8,
					"material":2
				},
				{
					"attributes":{
						"POSITION":9,
						"NORMAL":10
					},
					"indices":11,
					"material":3
				},
				{
					"attributes":{
						"POSITION":12,
						"NORMAL":13
					},
					"indices":14,
					"material":4
				}
			]
		}
	],
	"accessors":[
		{
			"bufferView":0,
			"componentType":5126,
			"count":20055,
			"max":[
				0.08149480074644089,
				0.14156141877174377,
				0.07937175780534744
			],
			"min":[
				-0.07762198895215988,
				-0.024156711995601654,
				-0.07949080318212509
			],
			"type":"VEC3"
		},
		{
			"bufferView":1,
			"componentType":5126,
			"count":20055,
			"type":"VEC3"
		},
		{
			"bufferView":2,
			"componentType":5123,
			"count":75909,
			"type":"SCALAR"
		},
		{
			"bufferView":3,
			"componentType":5126,
			"count":4585,
			"max":[
				0.07253532111644745,
				0.13864418864250183,
				0.07448364049196243
			],
			"min":[
				-0.07933077961206436,
				0.03263751417398453,
				-0.07456164062023163
			],
			"type":"VEC3"
		},
		{
			"bufferView":4,
			"componentType":5126,
			"count":4585,
			"type":"VEC3"
		},
		{
			"bufferView":5,
			"componentType":5123,
			"count":21144,
			"type":"SCALAR"
		},
		{
			"bufferView":6,
			"componentType":5126,
			"count":543,
			"max":[
				0.07247127592563629,
				0.13833144307136536,
				0.07446444034576416
			],
			"min":[
				-0.0588240846991539,
				0.04796675592660904,
				-0.07454180717468262
			],
			"type":"VEC3"
		},
		{
			"bufferView":7,
			"componentType":5126,
			"count":543,
			"type":"VEC3"
		},
		{
			"bufferView":8,
			"componentType":5123,
			"count":2421,
			"type":"SCALAR"
		},
		{
			"bufferView":9,
			"componentType":5126,
			"count":3074,
			"max":[
				0.018419312313199043,
				0.02084139734506607,
				0.029490577057003975
			],
			"min":[
				-0.02156839519739151,
				-0.019148610532283783,
				-0.029509516432881355
			],
			"type":"VEC3"
		},
		{
			"bufferView":10,
			"componentType":5126,
			"count":3074,
			"type":"VEC3"
		},
		{
			"bufferView":11,
			"componentType":5123,
			"count":12516,
			"type":"SCALAR"
		},
		{
			"bufferView":12,
			"componentType":5126,
			"count":3912,
			"max":[
				0.013917735777795315,
				0.016333796083927155,
				0.020990591496229172
			],
			"min":[
				-0.017055798321962357,
				-0.014647267758846283,
				-0.021009547635912895
			],
			"type":"VEC3"
		},
		{
			"bufferView":13,
			"componentType":5126,
			"count":3912,
			"type":"VEC3"
		},
		{
			"bufferView":14,
			"componentType":5123,
			"count":11904,
			"type":"SCALAR"
		}
	],
	"bufferViews":[
		{
			"buffer":0,
			"byteLength":240660,
			"byteOffset":0,
			"target":34962
		},
		{
			"buffer":0,
			"byteLength":240660,
			"byteOffset":240660,
			"target":34962
		},
		{
			"buffer":0,
			"byteLength":151818,
			"byteOffset":481320,
			"target":34963
		},
		{
			"buffer":0,
			"byteLength":55020,
			"byteOffset":633140,
			"target":34962
		},
		{
			"buffer":0,
			"byteLength":55020,
			"byteOffset":688160,
			"target":34962
		},
		{
			"buffer":0,
			"byteLength":42288,
			"byteOffset":743180,
			"target":34963
		},
		{
			"buffer":0,
			"byteLength":6516,
			"byteOffset":785468,
			"target":34962
		},
		{
			"buffer":0,
			"byteLength":6516,
			"byteOffset":791984,
			"target":34962
		},
		{
			"buffer":0,
			"byteLength":4842,
			"byteOffset":798500,
			"target":34963
		},
		{
			"buffer":0,
			"byteLength":36888,
			"byteOffset":803344,
			"target":34962
		},
		{
			"buffer":0,
			"byteLength":36888,
			"byteOffset":840232,
			"target":34962
		},
		{
			"buffer":0,
			"byteLength":25032,
			"byteOffset":877120,
			"target":34963
		},
		{
			"buffer":0,
			"byteLength":46944,
			"byteOffset":902152,
			"target":34962
		},
		{
			"buffer":0,
			"byteLength":46944,
			"byteOffset":949096,
			"target":34962
		},
		{
			"buffer":0,
			"byteLength":23808,
			"byteOffset":996040,
			"target":34963
		}
	],
	"buffers":[
		{
			"byteLength":1019848,
			"uri":"Sciurus17_h2.bin"
		}
	]
}
