{
	"asset":{
		"generator":"Khronos glTF Blender I/O v4.1.63",
		"version":"2.0"
	},
	"scene":0,
	"scenes":[
		{
			"name":"Scene",
			"nodes":[
				1
			]
		}
	],
	"nodes":[
		{
			"mesh":0,
			"name":"ABS\u30d5\u30ec\u30fc\u30e0F\r_C"
		},
		{
			"children":[
				0
			],
			"name":"Arm_Right"
		}
	],
	"materials":[
		{
			"doubleSided":true,
			"name":"mat_0",
			"pbrMetallicRoughness":{
				"baseColorFactor":[
					0.8307698965072632,
					0.8307698965072632,
					0.8307698965072632,
					1
				],
				"metallicFactor":0.5,
				"roughnessFactor":0.5
			}
		},
		{
			"doubleSided":true,
			"name":"mat_2",
			"pbrMetallicRoughness":{
				"baseColorFactor":[
					0.44520121812820435,
					0,
					0,
					1
				],
				"metallicFactor":0.5,
				"roughnessFactor":0.5
			}
		},
		{
			"doubleSided":true,
			"name":"mat_6",
			"pbrMetallicRoughness":{
				"baseColorFactor":[
					0.9911020994186401,
					0.9911020994186401,
					1,
					1
				],
				"metallicFactor":0.5,
				"roughnessFactor":0.5
			}
		}
	],
	"meshes":[
		{
			"name":"ABS\u30d5\u30ec\u30fc\u30e0F\r_C",
			"primitives":[
				{
					"attributes":{
						"POSITION":0,
						"NORMAL":1
					},
					"indices":2,
					"material":0
				},
				{
					"attributes":{
						"POSITION":3,
						"NORMAL":4
					},
					"indices":5,
					"material":1
				},
				{
					"attributes":{
						"POSITION":6,
						"NORMAL":7
					},
					"indices":8,
					"material":2
				}
			]
		}
	],
	"accessors":[
		{
			"bufferView":0,
			"componentType":5126,
			"count":13997,
			"max":[
				0.03271424397826195,
				0.06295233964920044,
				0.03499554470181465
			],
			"min":[
				-0.032708827406167984,
				-0.027047663927078247,
				-0.035104453563690186
			],
			"type":"VEC3"
		},
		{
			"bufferView":1,
			"componentType":5126,
			"count":13997,
			"type":"VEC3"
		},
		{
			"bufferView":2,
			"componentType":5123,
			"count":48108,
			"type":"SCALAR"
		},
		{
			"bufferView":3,
			"componentType":5126,
			"count":3075,
			"max":[
				0.019998397678136826,
				0.019937846809625626,
				0.03609554097056389
			],
			"min":[
				-0.019987601786851883,
				-0.020047485828399658,
				-0.03610445559024811
			],
			"type":"VEC3"
		},
		{
			"bufferView":4,
			"componentType":5126,
			"count":3075,
			"type":"VEC3"
		},
		{
			"bufferView":5,
			"componentType":5123,
			"count":12516,
			"type":"SCALAR"
		},
		{
			"bufferView":6,
			"componentType":5126,
			"count":7219,
			"max":[
				0.024982880800962448,
				0.06495234370231628,
				0.027395542711019516
			],
			"min":[
				-0.024976003915071487,
				-0.019047647714614868,
				-0.02760446071624756
			],
			"type":"VEC3"
		},
		{
			"bufferView":7,
			"componentType":5126,
			"count":7219,
			"type":"VEC3"
		},
		{
			"bufferView":8,
			"componentType":5123,
			"count":21888,
			"type":"SCALAR"
		}
	],
	"bufferViews":[
		{
			"buffer":0,
			"byteLength":167964,
			"byteOffset":0,
			"target":34962
		},
		{
			"buffer":0,
			"byteLength":167964,
			"byteOffset":167964,
			"target":34962
		},
		{
			"buffer":0,
			"byteLength":96216,
			"byteOffset":335928,
			"target":34963
		},
		{
			"buffer":0,
			"byteLength":36900,
			"byteOffset":432144,
			"target":34962
		},
		{
			"buffer":0,
			"byteLength":36900,
			"byteOffset":469044,
			"target":34962
		},
		{
			"buffer":0,
			"byteLength":25032,
			"byteOffset":505944,
			"target":34963
		},
		{
			"buffer":0,
			"byteLength":86628,
			"byteOffset":530976,
			"target":34962
		},
		{
			"buffer":0,
			"byteLength":86628,
			"byteOffset":617604,
			"target":34962
		},
		{
			"buffer":0,
			"byteLength":43776,
			"byteOffset":704232,
			"target":34963
		}
	],
	"buffers":[
		{
			"byteLength":748008,
			"uri":"Sciurus17_r2.bin"
		}
	]
}
