{
	"asset":{
		"generator":"Khronos glTF Blender I/O v4.1.63",
		"version":"2.0"
	},
	"scene":0,
	"scenes":[
		{
			"name":"Scene",
			"nodes":[
				0
			]
		}
	],
	"nodes":[
		{
			"mesh":0,
			"name":"CRANE-X7_HandD1 20180505"
		}
	],
	"materials":[
		{
			"doubleSided":true,
			"name":"mat_5",
			"pbrMetallicRoughness":{
				"baseColorFactor":[
					0.6038273572921753,
					0,
					0,
					1
				],
				"metallicFactor":0.5,
				"roughnessFactor":0.5
			}
		},
		{
			"doubleSided":true,
			"name":"mat_12",
			"pbrMetallicRoughness":{
				"baseColorFactor":[
					0.9130986332893372,
					0.9130986332893372,
					0.9215818643569946,
					1
				],
				"metallicFactor":0.5,
				"roughnessFactor":0.5
			}
		},
		{
			"doubleSided":true,
			"name":"mat_10",
			"pbrMetallicRoughness":{
				"baseColorFactor":[
					0.35153263807296753,
					0.35153263807296753,
					0.35153263807296753,
					1
				],
				"metallicFactor":0.5,
				"roughnessFactor":0.5
			}
		},
		{
			"doubleSided":true,
			"name":"mat_2",
			"pbrMetallicRoughness":{
				"baseColorFactor":[
					0.44520121812820435,
					0,
					0,
					1
				],
				"metallicFactor":0.5,
				"roughnessFactor":0.5
			}
		}
	],
	"meshes":[
		{
			"name":"CRANE-X7_HandD1 20180505",
			"primitives":[
				{
					"attributes":{
						"POSITION":0,
						"NORMAL":1
					},
					"indices":2,
					"material":0
				},
				{
					"attributes":{
						"POSITION":3,
						"NORMAL":4
					},
					"indices":5,
					"material":1
				},
				{
					"attributes":{
						"POSITION":6,
						"NORMAL":7
					},
					"indices":8,
					"material":2
				},
				{
					"attributes":{
						"POSITION":9,
						"NORMAL":10
					},
					"indices":11,
					"material":3
				}
			]
		}
	],
	"accessors":[
		{
			"bufferView":0,
			"componentType":5126,
			"count":4730,
			"max":[
				-0.01646493561565876,
				0.05999660864472389,
				0.013498177751898766
			],
			"min":[
				-0.0244661346077919,
				-0.013502399437129498,
				-0.013001220300793648
			],
			"type":"VEC3"
		},
		{
			"bufferView":1,
			"componentType":5126,
			"count":4730,
			"type":"VEC3"
		},
		{
			"bufferView":2,
			"componentType":5123,
			"count":12666,
			"type":"SCALAR"
		},
		{
			"bufferView":3,
			"componentType":5126,
			"count":326,
			"max":[
				-0.0194648839533329,
				0.0011785862734541297,
				0.013498177751898766
			],
			"min":[
				-0.024465590715408325,
				-0.013502399437129498,
				-0.0011830483563244343
			],
			"type":"VEC3"
		},
		{
			"bufferView":4,
			"componentType":5126,
			"count":326,
			"type":"VEC3"
		},
		{
			"bufferView":5,
			"componentType":5123,
			"count":762,
			"type":"SCALAR"
		},
		{
			"bufferView":6,
			"componentType":5126,
			"count":111,
			"max":[
				0.01703478768467903,
				0.042349305003881454,
				0.006447420455515385
			],
			"min":[
				-0.009465895593166351,
				-0.006406421307474375,
				-0.007801053114235401
			],
			"type":"VEC3"
		},
		{
			"bufferView":7,
			"componentType":5126,
			"count":111,
			"type":"VEC3"
		},
		{
			"bufferView":8,
			"componentType":5123,
			"count":393,
			"type":"SCALAR"
		},
		{
			"bufferView":9,
			"componentType":5126,
			"count":1802,
			"max":[
				0.024535033851861954,
				0.059996556490659714,
				0.011998791247606277
			],
			"min":[
				-0.0173659548163414,
				-0.009949903003871441,
				-0.013003173284232616
			],
			"type":"VEC3"
		},
		{
			"bufferView":10,
			"componentType":5126,
			"count":1802,
			"type":"VEC3"
		},
		{
			"bufferView":11,
			"componentType":5123,
			"count":5376,
			"type":"SCALAR"
		}
	],
	"bufferViews":[
		{
			"buffer":0,
			"byteLength":56760,
			"byteOffset":0,
			"target":34962
		},
		{
			"buffer":0,
			"byteLength":56760,
			"byteOffset":56760,
			"target":34962
		},
		{
			"buffer":0,
			"byteLength":25332,
			"byteOffset":113520,
			"target":34963
		},
		{
			"buffer":0,
			"byteLength":3912,
			"byteOffset":138852,
			"target":34962
		},
		{
			"buffer":0,
			"byteLength":3912,
			"byteOffset":142764,
			"target":34962
		},
		{
			"buffer":0,
			"byteLength":1524,
			"byteOffset":146676,
			"target":34963
		},
		{
			"buffer":0,
			"byteLength":1332,
			"byteOffset":148200,
			"target":34962
		},
		{
			"buffer":0,
			"byteLength":1332,
			"byteOffset":149532,
			"target":34962
		},
		{
			"buffer":0,
			"byteLength":786,
			"byteOffset":150864,
			"target":34963
		},
		{
			"buffer":0,
			"byteLength":21624,
			"byteOffset":151652,
			"target":34962
		},
		{
			"buffer":0,
			"byteLength":21624,
			"byteOffset":173276,
			"target":34962
		},
		{
			"buffer":0,
			"byteLength":10752,
			"byteOffset":194900,
			"target":34963
		}
	],
	"buffers":[
		{
			"byteLength":205652,
			"uri":"Sciurus17_r8_1.bin"
		}
	]
}
