{
	"asset":{
		"generator":"Khronos glTF Blender I/O v4.1.63",
		"version":"2.0"
	},
	"scene":0,
	"scenes":[
		{
			"name":"Scene",
			"nodes":[
				0
			]
		}
	],
	"nodes":[
		{
			"mesh":0,
			"name":"\u30a2\u30eb\u30df\u30d5\u30ec\u30fc\u30e0B2"
		}
	],
	"materials":[
		{
			"doubleSided":true,
			"name":"mat_3",
			"pbrMetallicRoughness":{
				"baseColorFactor":[
					0.9911020994186401,
					0.9911020994186401,
					1,
					1
				],
				"metallicFactor":0.5,
				"roughnessFactor":0.5
			}
		},
		{
			"doubleSided":true,
			"name":"mat_5",
			"pbrMetallicRoughness":{
				"baseColorFactor":[
					0.8307698965072632,
					0.8307698965072632,
					0.8307698965072632,
					1
				],
				"metallicFactor":0.5,
				"roughnessFactor":0.5
			}
		}
	],
	"meshes":[
		{
			"name":"\u30a2\u30eb\u30df\u30d5\u30ec\u30fc\u30e0B2",
			"primitives":[
				{
					"attributes":{
						"POSITION":0,
						"NORMAL":1
					},
					"indices":2,
					"material":0
				},
				{
					"attributes":{
						"POSITION":3,
						"NORMAL":4
					},
					"indices":5,
					"material":1
				}
			]
		}
	],
	"accessors":[
		{
			"bufferView":0,
			"componentType":5126,
			"count":7835,
			"max":[
				0.021969785913825035,
				0.06951937079429626,
				0.02197793498635292
			],
			"min":[
				-0.0219735037535429,
				2.8798356652259827e-05,
				-0.021984461694955826
			],
			"type":"VEC3"
		},
		{
			"bufferView":1,
			"componentType":5126,
			"count":7835,
			"type":"VEC3"
		},
		{
			"bufferView":2,
			"componentType":5123,
			"count":21900,
			"type":"SCALAR"
		},
		{
			"bufferView":3,
			"componentType":5126,
			"count":7451,
			"max":[
				0.02852553501725197,
				0.08402882516384125,
				0.029777299612760544
			],
			"min":[
				-0.028474468737840652,
				0.0020288024097681046,
				-0.029883386567234993
			],
			"type":"VEC3"
		},
		{
			"bufferView":4,
			"componentType":5126,
			"count":7451,
			"type":"VEC3"
		},
		{
			"bufferView":5,
			"componentType":5123,
			"count":23988,
			"type":"SCALAR"
		}
	],
	"bufferViews":[
		{
			"buffer":0,
			"byteLength":94020,
			"byteOffset":0,
			"target":34962
		},
		{
			"buffer":0,
			"byteLength":94020,
			"byteOffset":94020,
			"target":34962
		},
		{
			"buffer":0,
			"byteLength":43800,
			"byteOffset":188040,
			"target":34963
		},
		{
			"buffer":0,
			"byteLength":89412,
			"byteOffset":231840,
			"target":34962
		},
		{
			"buffer":0,
			"byteLength":89412,
			"byteOffset":321252,
			"target":34962
		},
		{
			"buffer":0,
			"byteLength":47976,
			"byteOffset":410664,
			"target":34963
		}
	],
	"buffers":[
		{
			"byteLength":458640,
			"uri":"Sciurus17_h1.bin"
		}
	]
}
