{
	"asset":{
		"generator":"Khronos glTF Blender I/O v4.1.63",
		"version":"2.0"
	},
	"scene":0,
	"scenes":[
		{
			"name":"Scene",
			"nodes":[
				2
			]
		}
	],
	"nodes":[
		{
			"name":"Sciurus17\u810a\u690e\u57fa\u677f (1)",
			"rotation":[
				1,
				0,
				0,
				9.450599643609221e-16
			],
			"translation":[
				-0.07475048303604126,
				0.12721242010593414,
				-0.004309766460210085
			]
		},
		{
			"mesh":0,
			"name":"\u30d9\u30fc\u30b9\u30ab\u30d0\u30fc20180515",
			"rotation":[
				0,
				-0.7071068286895752,
				0,
				0.7071068286895752
			]
		},
		{
			"children":[
				0,
				1
			],
			"name":"Center"
		}
	],
	"materials":[
		{
			"doubleSided":true,
			"name":"mat_5",
			"pbrMetallicRoughness":{
				"baseColorFactor":[
					0.8307698965072632,
					0.8307698965072632,
					0.8307698965072632,
					1
				],
				"metallicFactor":0.5,
				"roughnessFactor":0.5
			}
		},
		{
			"doubleSided":true,
			"name":"mat_13",
			"pbrMetallicRoughness":{
				"baseColorFactor":[
					0.9130986332893372,
					0.9130986332893372,
					0.9130986332893372,
					1
				],
				"metallicFactor":0.5,
				"roughnessFactor":0.5
			}
		},
		{
			"doubleSided":true,
			"name":"mat_4",
			"pbrMetallicRoughness":{
				"baseColorFactor":[
					0.838798999786377,
					0.8796223998069763,
					0.8631572127342224,
					1
				],
				"metallicFactor":0.5,
				"roughnessFactor":0.5
			}
		},
		{
			"doubleSided":true,
			"name":"mat_8",
			"pbrMetallicRoughness":{
				"baseColorFactor":[
					0.0015176349552348256,
					0.0015176349552348256,
					0.0015176349552348256,
					1
				],
				"metallicFactor":0.5,
				"roughnessFactor":0.5
			}
		},
		{
			"doubleSided":true,
			"name":"mat_9",
			"pbrMetallicRoughness":{
				"baseColorFactor":[
					0.004024717025458813,
					0.33716365694999695,
					0.004024717025458813,
					1
				],
				"metallicFactor":0.5,
				"roughnessFactor":0.5
			}
		},
		{
			"doubleSided":true,
			"name":"mat_0",
			"pbrMetallicRoughness":{
				"baseColorFactor":[
					0.6038273572921753,
					0,
					0,
					1
				],
				"metallicFactor":0.5,
				"roughnessFactor":0.5
			}
		},
		{
			"doubleSided":true,
			"name":"mat_10",
			"pbrMetallicRoughness":{
				"baseColorFactor":[
					0.05126945301890373,
					0.05126945301890373,
					0.05126945301890373,
					1
				],
				"metallicFactor":0.5,
				"roughnessFactor":0.5
			}
		},
		{
			"doubleSided":true,
			"name":"mat_11",
			"pbrMetallicRoughness":{
				"baseColorFactor":[
					0.7835378050804138,
					0.7835378050804138,
					0.7835378050804138,
					1
				],
				"metallicFactor":0.5,
				"roughnessFactor":0.5
			}
		},
		{
			"doubleSided":true,
			"name":"mat_1",
			"pbrMetallicRoughness":{
				"baseColorFactor":[
					0.5209956169128418,
					0.5209956169128418,
					0.5209956169128418,
					1
				],
				"metallicFactor":0.5,
				"roughnessFactor":0.5
			}
		},
		{
			"doubleSided":true,
			"name":"mat_12",
			"pbrMetallicRoughness":{
				"baseColorFactor":[
					0.16513219475746155,
					0.16513219475746155,
					0.16513219475746155,
					1
				],
				"metallicFactor":0.5,
				"roughnessFactor":0.5
			}
		},
		{
			"doubleSided":true,
			"name":"mat_2",
			"pbrMetallicRoughness":{
				"baseColorFactor":[
					0.07421357184648514,
					0.07618539035320282,
					0.06847815960645676,
					1
				],
				"metallicFactor":0.5,
				"roughnessFactor":0.5
			}
		},
		{
			"doubleSided":true,
			"name":"mat_3",
			"pbrMetallicRoughness":{
				"baseColorFactor":[
					0.9911020994186401,
					0.9911020994186401,
					1,
					1
				],
				"metallicFactor":0.5,
				"roughnessFactor":0.5
			}
		}
	],
	"meshes":[
		{
			"name":"\u30d9\u30fc\u30b9\u30ab\u30d0\u30fc20180515",
			"primitives":[
				{
					"attributes":{
						"POSITION":0,
						"NORMAL":1
					},
					"indices":2,
					"material":0
				},
				{
					"attributes":{
						"POSITION":3,
						"NORMAL":4
					},
					"indices":5,
					"material":1
				},
				{
					"attributes":{
						"POSITION":6,
						"NORMAL":7
					},
					"indices":8,
					"material":2
				},
				{
					"attributes":{
						"POSITION":9,
						"NORMAL":10
					},
					"indices":11,
					"material":3
				},
				{
					"attributes":{
						"POSITION":12,
						"NORMAL":13
					},
					"indices":14,
					"material":4
				},
				{
					"attributes":{
						"POSITION":15,
						"NORMAL":16
					},
					"indices":17,
					"material":5
				},
				{
					"attributes":{
						"POSITION":18,
						"NORMAL":19
					},
					"indices":20,
					"material":6
				},
				{
					"attributes":{
						"POSITION":21,
						"NORMAL":22
					},
					"indices":23,
					"material":7
				},
				{
					"attributes":{
						"POSITION":24,
						"NORMAL":25
					},
					"indices":26,
					"material":8
				},
				{
					"attributes":{
						"POSITION":27,
						"NORMAL":28
					},
					"indices":29,
					"material":9
				},
				{
					"attributes":{
						"POSITION":30,
						"NORMAL":31
					},
					"indices":32,
					"material":10
				},
				{
					"attributes":{
						"POSITION":33,
						"NORMAL":34
					},
					"indices":35,
					"material":11
				}
			]
		}
	],
	"accessors":[
		{
			"bufferView":0,
			"componentType":5126,
			"count":23470,
			"max":[
				0.0625,
				0.148499995470047,
				0.06199999898672104
			],
			"min":[
				-0.1080000028014183,
				0.004999999888241291,
				-0.06199999898672104
			],
			"type":"VEC3"
		},
		{
			"bufferView":1,
			"componentType":5126,
			"count":23470,
			"type":"VEC3"
		},
		{
			"bufferView":2,
			"componentType":5123,
			"count":74718,
			"type":"SCALAR"
		},
		{
			"bufferView":3,
			"componentType":5126,
			"count":100,
			"max":[
				0.0625,
				0.0429910346865654,
				-0.019911620765924454
			],
			"min":[
				0.0625,
				0.027018599212169647,
				-0.03558837249875069
			],
			"type":"VEC3"
		},
		{
			"bufferView":4,
			"componentType":5126,
			"count":100,
			"type":"VEC3"
		},
		{
			"bufferView":5,
			"componentType":5123,
			"count":252,
			"type":"SCALAR"
		},
		{
			"bufferView":6,
			"componentType":5126,
			"count":628,
			"max":[
				-0.002001789165660739,
				0.14000000059604645,
				0.05504617467522621
			],
			"min":[
				-0.06749983131885529,
				0.09549999982118607,
				-0.011896416544914246
			],
			"type":"VEC3"
		},
		{
			"bufferView":7,
			"componentType":5126,
			"count":628,
			"type":"VEC3"
		},
		{
			"bufferView":8,
			"componentType":5123,
			"count":1440,
			"type":"SCALAR"
		},
		{
			"bufferView":9,
			"componentType":5126,
			"count":4526,
			"max":[
				0.06200000271201134,
				0.14100000262260437,
				0.08500000089406967
			],
			"min":[
				-0.1080000028014183,
				0,
				-0.08500000089406967
			],
			"type":"VEC3"
		},
		{
			"bufferView":10,
			"componentType":5126,
			"count":4526,
			"type":"VEC3"
		},
		{
			"bufferView":11,
			"componentType":5123,
			"count":13092,
			"type":"SCALAR"
		},
		{
			"bufferView":12,
			"componentType":5126,
			"count":830,
			"max":[
				-0.047999996691942215,
				0.1340000033378601,
				0.03500000014901161
			],
			"min":[
				-0.09300000220537186,
				0.11740001291036606,
				-0.03500000014901161
			],
			"type":"VEC3"
		},
		{
			"bufferView":13,
			"componentType":5126,
			"count":830,
			"type":"VEC3"
		},
		{
			"bufferView":14,
			"componentType":5123,
			"count":2196,
			"type":"SCALAR"
		},
		{
			"bufferView":15,
			"componentType":5126,
			"count":80,
			"max":[
				-0.06560000032186508,
				0.13500000536441803,
				0.020399998873472214
			],
			"min":[
				-0.06639999896287918,
				0.1340000033378601,
				-0.01119999960064888
			],
			"type":"VEC3"
		},
		{
			"bufferView":16,
			"componentType":5126,
			"count":80,
			"type":"VEC3"
		},
		{
			"bufferView":17,
			"componentType":5123,
			"count":120,
			"type":"SCALAR"
		},
		{
			"bufferView":18,
			"componentType":5126,
			"count":2336,
			"max":[
				-0.08400000631809235,
				0.11059998720884323,
				0.007499999366700649
			],
			"min":[
				-0.10162550956010818,
				0.08909998089075089,
				-0.007500000298023224
			],
			"type":"VEC3"
		},
		{
			"bufferView":19,
			"componentType":5126,
			"count":2336,
			"type":"VEC3"
		},
		{
			"bufferView":20,
			"componentType":5123,
			"count":6168,
			"type":"SCALAR"
		},
		{
			"bufferView":21,
			"componentType":5126,
			"count":40,
			"max":[
				-0.08100000768899918,
				0.1075499877333641,
				0.004649999551475048
			],
			"min":[
				-0.08400000631809235,
				0.09244998544454575,
				0.0041499994695186615
			],
			"type":"VEC3"
		},
		{
			"bufferView":22,
			"componentType":5126,
			"count":40,
			"type":"VEC3"
		},
		{
			"bufferView":23,
			"componentType":5123,
			"count":60,
			"type":"SCALAR"
		},
		{
			"bufferView":24,
			"componentType":5126,
			"count":1886,
			"max":[
				0.00160000822506845,
				0.11600000411272049,
				0.03800000250339508
			],
			"min":[
				-0.10029999911785126,
				0.08500000089406967,
				-0.03800000250339508
			],
			"type":"VEC3"
		},
		{
			"bufferView":25,
			"componentType":5126,
			"count":1886,
			"type":"VEC3"
		},
		{
			"bufferView":26,
			"componentType":5123,
			"count":5280,
			"type":"SCALAR"
		},
		{
			"bufferView":27,
			"componentType":5126,
			"count":2212,
			"max":[
				-0.09300000220537186,
				0.08000000566244125,
				0.05999999865889549
			],
			"min":[
				-0.1080000028014183,
				0.004999999888241291,
				-0.05999999865889549
			],
			"type":"VEC3"
		},
		{
			"bufferView":28,
			"componentType":5126,
			"count":2212,
			"type":"VEC3"
		},
		{
			"bufferView":29,
			"componentType":5123,
			"count":5232,
			"type":"SCALAR"
		},
		{
			"bufferView":30,
			"componentType":5126,
			"count":1428,
			"max":[
				-0.08730000257492065,
				0.11549728363752365,
				0.03749099001288414
			],
			"min":[
				-0.09730000048875809,
				0.0855008214712143,
				-0.037485986948013306
			],
			"type":"VEC3"
		},
		{
			"bufferView":31,
			"componentType":5126,
			"count":1428,
			"type":"VEC3"
		},
		{
			"bufferView":32,
			"componentType":5123,
			"count":4176,
			"type":"SCALAR"
		},
		{
			"bufferView":33,
			"componentType":5126,
			"count":3479,
			"max":[
				0.03273256868124008,
				0.13349999487400055,
				0.03274904191493988
			],
			"min":[
				-0.03271239250898361,
				0.1314999908208847,
				-0.0326630100607872
			],
			"type":"VEC3"
		},
		{
			"bufferView":34,
			"componentType":5126,
			"count":3479,
			"type":"VEC3"
		},
		{
			"bufferView":35,
			"componentType":5123,
			"count":10032,
			"type":"SCALAR"
		}
	],
	"bufferViews":[
		{
			"buffer":0,
			"byteLength":281640,
			"byteOffset":0,
			"target":34962
		},
		{
			"buffer":0,
			"byteLength":281640,
			"byteOffset":281640,
			"target":34962
		},
		{
			"buffer":0,
			"byteLength":149436,
			"byteOffset":563280,
			"target":34963
		},
		{
			"buffer":0,
			"byteLength":1200,
			"byteOffset":712716,
			"target":34962
		},
		{
			"buffer":0,
			"byteLength":1200,
			"byteOffset":713916,
			"target":34962
		},
		{
			"buffer":0,
			"byteLength":504,
			"byteOffset":715116,
			"target":34963
		},
		{
			"buffer":0,
			"byteLength":7536,
			"byteOffset":715620,
			"target":34962
		},
		{
			"buffer":0,
			"byteLength":7536,
			"byteOffset":723156,
			"target":34962
		},
		{
			"buffer":0,
			"byteLength":2880,
			"byteOffset":730692,
			"target":34963
		},
		{
			"buffer":0,
			"byteLength":54312,
			"byteOffset":733572,
			"target":34962
		},
		{
			"buffer":0,
			"byteLength":54312,
			"byteOffset":787884,
			"target":34962
		},
		{
			"buffer":0,
			"byteLength":26184,
			"byteOffset":842196,
			"target":34963
		},
		{
			"buffer":0,
			"byteLength":9960,
			"byteOffset":868380,
			"target":34962
		},
		{
			"buffer":0,
			"byteLength":9960,
			"byteOffset":878340,
			"target":34962
		},
		{
			"buffer":0,
			"byteLength":4392,
			"byteOffset":888300,
			"target":34963
		},
		{
			"buffer":0,
			"byteLength":960,
			"byteOffset":892692,
			"target":34962
		},
		{
			"buffer":0,
			"byteLength":960,
			"byteOffset":893652,
			"target":34962
		},
		{
			"buffer":0,
			"byteLength":240,
			"byteOffset":894612,
			"target":34963
		},
		{
			"buffer":0,
			"byteLength":28032,
			"byteOffset":894852,
			"target":34962
		},
		{
			"buffer":0,
			"byteLength":28032,
			"byteOffset":922884,
			"target":34962
		},
		{
			"buffer":0,
			"byteLength":12336,
			"byteOffset":950916,
			"target":34963
		},
		{
			"buffer":0,
			"byteLength":480,
			"byteOffset":963252,
			"target":34962
		},
		{
			"buffer":0,
			"byteLength":480,
			"byteOffset":963732,
			"target":34962
		},
		{
			"buffer":0,
			"byteLength":120,
			"byteOffset":964212,
			"target":34963
		},
		{
			"buffer":0,
			"byteLength":22632,
			"byteOffset":964332,
			"target":34962
		},
		{
			"buffer":0,
			"byteLength":22632,
			"byteOffset":986964,
			"target":34962
		},
		{
			"buffer":0,
			"byteLength":10560,
			"byteOffset":1009596,
			"target":34963
		},
		{
			"buffer":0,
			"byteLength":26544,
			"byteOffset":1020156,
			"target":34962
		},
		{
			"buffer":0,
			"byteLength":26544,
			"byteOffset":1046700,
			"target":34962
		},
		{
			"buffer":0,
			"byteLength":10464,
			"byteOffset":1073244,
			"target":34963
		},
		{
			"buffer":0,
			"byteLength":17136,
			"byteOffset":1083708,
			"target":34962
		},
		{
			"buffer":0,
			"byteLength":17136,
			"byteOffset":1100844,
			"target":34962
		},
		{
			"buffer":0,
			"byteLength":8352,
			"byteOffset":1117980,
			"target":34963
		},
		{
			"buffer":0,
			"byteLength":41748,
			"byteOffset":1126332,
			"target":34962
		},
		{
			"buffer":0,
			"byteLength":41748,
			"byteOffset":1168080,
			"target":34962
		},
		{
			"buffer":0,
			"byteLength":20064,
			"byteOffset":1209828,
			"target":34963
		}
	],
	"buffers":[
		{
			"byteLength":1229892,
			"uri":"Sciurus17_base.bin"
		}
	]
}
