{
	"asset":{
		"generator":"Khronos glTF Blender I/O v4.1.63",
		"version":"2.0"
	},
	"scene":0,
	"scenes":[
		{
			"name":"Scene",
			"nodes":[
				0
			]
		}
	],
	"nodes":[
		{
			"mesh":0,
			"name":"Sciurus17_Left_HandD3",
			"translation":[
				0.0019499999471008778,
				0,
				0
			]
		}
	],
	"materials":[
		{
			"doubleSided":true,
			"name":"mat_5",
			"pbrMetallicRoughness":{
				"baseColorFactor":[
					0.35153263807296753,
					0.35153263807296753,
					0.35153263807296753,
					1
				],
				"metallicFactor":0.5,
				"roughnessFactor":0.5
			}
		},
		{
			"doubleSided":true,
			"name":"mat_6",
			"pbrMetallicRoughness":{
				"baseColorFactor":[
					0.44520121812820435,
					0,
					0,
					1
				],
				"metallicFactor":0.5,
				"roughnessFactor":0.5
			}
		}
	],
	"meshes":[
		{
			"name":"Sciurus17_Left_HandD3",
			"primitives":[
				{
					"attributes":{
						"POSITION":0,
						"NORMAL":1
					},
					"indices":2,
					"material":0
				},
				{
					"attributes":{
						"POSITION":3,
						"NORMAL":4
					},
					"indices":5,
					"material":1
				}
			]
		}
	],
	"accessors":[
		{
			"bufferView":0,
			"componentType":5126,
			"count":599,
			"max":[
				0.02255077101290226,
				0.04235058277845383,
				0.011242655105888844
			],
			"min":[
				-0.018950775265693665,
				-0.011243972927331924,
				-0.009994889609515667
			],
			"type":"VEC3"
		},
		{
			"bufferView":1,
			"componentType":5126,
			"count":599,
			"type":"VEC3"
		},
		{
			"bufferView":2,
			"componentType":5123,
			"count":1713,
			"type":"SCALAR"
		},
		{
			"bufferView":3,
			"componentType":5126,
			"count":5501,
			"max":[
				0.022550923749804497,
				0.059997811913490295,
				0.013000392355024815
			],
			"min":[
				-0.02645144797861576,
				-0.01264074258506298,
				-0.012999515049159527
			],
			"type":"VEC3"
		},
		{
			"bufferView":4,
			"componentType":5126,
			"count":5501,
			"type":"VEC3"
		},
		{
			"bufferView":5,
			"componentType":5123,
			"count":16926,
			"type":"SCALAR"
		}
	],
	"bufferViews":[
		{
			"buffer":0,
			"byteLength":7188,
			"byteOffset":0,
			"target":34962
		},
		{
			"buffer":0,
			"byteLength":7188,
			"byteOffset":7188,
			"target":34962
		},
		{
			"buffer":0,
			"byteLength":3426,
			"byteOffset":14376,
			"target":34963
		},
		{
			"buffer":0,
			"byteLength":66012,
			"byteOffset":17804,
			"target":34962
		},
		{
			"buffer":0,
			"byteLength":66012,
			"byteOffset":83816,
			"target":34962
		},
		{
			"buffer":0,
			"byteLength":33852,
			"byteOffset":149828,
			"target":34963
		}
	],
	"buffers":[
		{
			"byteLength":183680,
			"uri":"Sciurus17_l8_1.bin"
		}
	]
}
