{
	"asset":{
		"generator":"Khronos glTF Blender I/O v4.1.63",
		"version":"2.0"
	},
	"scene":0,
	"scenes":[
		{
			"name":"Scene",
			"nodes":[
				0
			]
		}
	],
	"nodes":[
		{
			"mesh":0,
			"name":"\u30d5\u30ec\u30fc\u30e0M\r2 (1)"
		}
	],
	"materials":[
		{
			"doubleSided":true,
			"name":"mat_4",
			"pbrMetallicRoughness":{
				"baseColorFactor":[
					0.9911020994186401,
					0.9911020994186401,
					1,
					1
				],
				"metallicFactor":0.5,
				"roughnessFactor":0.5
			}
		},
		{
			"doubleSided":true,
			"name":"mat_2",
			"pbrMetallicRoughness":{
				"baseColorFactor":[
					0.8307698965072632,
					0.8307698965072632,
					0.8307698965072632,
					1
				],
				"metallicFactor":0.5,
				"roughnessFactor":0.5
			}
		}
	],
	"meshes":[
		{
			"name":"\u30d5\u30ec\u30fc\u30e0M\r2 (1)",
			"primitives":[
				{
					"attributes":{
						"POSITION":0,
						"NORMAL":1
					},
					"indices":2,
					"material":0
				},
				{
					"attributes":{
						"POSITION":3,
						"NORMAL":4
					},
					"indices":5,
					"material":1
				}
			]
		}
	],
	"accessors":[
		{
			"bufferView":0,
			"componentType":5126,
			"count":7184,
			"max":[
				0.082986980676651,
				0.0274820514023304,
				0.027600375935435295
			],
			"min":[
				1.255422830581665e-06,
				-0.027473319321870804,
				-0.02759963646531105
			],
			"type":"VEC3"
		},
		{
			"bufferView":1,
			"componentType":5126,
			"count":7184,
			"type":"VEC3"
		},
		{
			"bufferView":2,
			"componentType":5123,
			"count":21960,
			"type":"SCALAR"
		},
		{
			"bufferView":3,
			"componentType":5126,
			"count":7183,
			"max":[
				0.09800127893686295,
				0.03399312496185303,
				0.03350037336349487
			],
			"min":[
				0.0020012594759464264,
				-0.03398633748292923,
				-0.03349962830543518
			],
			"type":"VEC3"
		},
		{
			"bufferView":4,
			"componentType":5126,
			"count":7183,
			"type":"VEC3"
		},
		{
			"bufferView":5,
			"componentType":5123,
			"count":24321,
			"type":"SCALAR"
		}
	],
	"bufferViews":[
		{
			"buffer":0,
			"byteLength":86208,
			"byteOffset":0,
			"target":34962
		},
		{
			"buffer":0,
			"byteLength":86208,
			"byteOffset":86208,
			"target":34962
		},
		{
			"buffer":0,
			"byteLength":43920,
			"byteOffset":172416,
			"target":34963
		},
		{
			"buffer":0,
			"byteLength":86196,
			"byteOffset":216336,
			"target":34962
		},
		{
			"buffer":0,
			"byteLength":86196,
			"byteOffset":302532,
			"target":34962
		},
		{
			"buffer":0,
			"byteLength":48642,
			"byteOffset":388728,
			"target":34963
		}
	],
	"buffers":[
		{
			"byteLength":437372,
			"uri":"Sciurus17_l1.bin"
		}
	]
}
