{
	"asset":{
		"generator":"Khronos glTF Blender I/O v4.1.63",
		"version":"2.0"
	},
	"scene":0,
	"scenes":[
		{
			"name":"Scene",
			"nodes":[
				0
			]
		}
	],
	"nodes":[
		{
			"mesh":0,
			"name":"Sciurus17_Left_Link4A 20180612"
		}
	],
	"materials":[
		{
			"doubleSided":true,
			"name":"mat_2",
			"pbrMetallicRoughness":{
				"baseColorFactor":[
					0.8307698965072632,
					0.8307698965072632,
					0.8307698965072632,
					1
				],
				"metallicFactor":0.5,
				"roughnessFactor":0.5
			}
		},
		{
			"doubleSided":true,
			"name":"mat_4",
			"pbrMetallicRoughness":{
				"baseColorFactor":[
					0.9911020994186401,
					0.9911020994186401,
					1,
					1
				],
				"metallicFactor":0.5,
				"roughnessFactor":0.5
			}
		},
		{
			"doubleSided":true,
			"name":"mat_6",
			"pbrMetallicRoughness":{
				"baseColorFactor":[
					0.44520121812820435,
					0,
					0,
					1
				],
				"metallicFactor":0.5,
				"roughnessFactor":0.5
			}
		}
	],
	"meshes":[
		{
			"name":"Sciurus17_Left_Link4A 20180612",
			"primitives":[
				{
					"attributes":{
						"POSITION":0,
						"NORMAL":1
					},
					"indices":2,
					"material":0
				},
				{
					"attributes":{
						"POSITION":3,
						"NORMAL":4
					},
					"indices":5,
					"material":1
				},
				{
					"attributes":{
						"POSITION":6,
						"NORMAL":7
					},
					"indices":8,
					"material":2
				}
			]
		}
	],
	"accessors":[
		{
			"bufferView":0,
			"componentType":5126,
			"count":18610,
			"max":[
				0.03499949723482132,
				0.13500139117240906,
				0.045001059770584106
			],
			"min":[
				-0.0350005067884922,
				-0.02698565647006035,
				-0.031102901324629784
			],
			"type":"VEC3"
		},
		{
			"bufferView":1,
			"componentType":5126,
			"count":18610,
			"type":"VEC3"
		},
		{
			"bufferView":2,
			"componentType":5123,
			"count":64623,
			"type":"SCALAR"
		},
		{
			"bufferView":3,
			"componentType":5126,
			"count":7661,
			"max":[
				0.027499500662088394,
				0.12300139665603638,
				0.021978380158543587
			],
			"min":[
				-0.027500513941049576,
				-0.01896761730313301,
				-0.0219762921333313
			],
			"type":"VEC3"
		},
		{
			"bufferView":4,
			"componentType":5126,
			"count":7661,
			"type":"VEC3"
		},
		{
			"bufferView":5,
			"componentType":5123,
			"count":21840,
			"type":"SCALAR"
		},
		{
			"bufferView":6,
			"componentType":5126,
			"count":3070,
			"max":[
				0.03604947403073311,
				0.01999817229807377,
				0.01996907778084278
			],
			"min":[
				-0.03605051711201668,
				-0.01999269798398018,
				-0.019996898248791695
			],
			"type":"VEC3"
		},
		{
			"bufferView":7,
			"componentType":5126,
			"count":3070,
			"type":"VEC3"
		},
		{
			"bufferView":8,
			"componentType":5123,
			"count":12516,
			"type":"SCALAR"
		}
	],
	"bufferViews":[
		{
			"buffer":0,
			"byteLength":223320,
			"byteOffset":0,
			"target":34962
		},
		{
			"buffer":0,
			"byteLength":223320,
			"byteOffset":223320,
			"target":34962
		},
		{
			"buffer":0,
			"byteLength":129246,
			"byteOffset":446640,
			"target":34963
		},
		{
			"buffer":0,
			"byteLength":91932,
			"byteOffset":575888,
			"target":34962
		},
		{
			"buffer":0,
			"byteLength":91932,
			"byteOffset":667820,
			"target":34962
		},
		{
			"buffer":0,
			"byteLength":43680,
			"byteOffset":759752,
			"target":34963
		},
		{
			"buffer":0,
			"byteLength":36840,
			"byteOffset":803432,
			"target":34962
		},
		{
			"buffer":0,
			"byteLength":36840,
			"byteOffset":840272,
			"target":34962
		},
		{
			"buffer":0,
			"byteLength":25032,
			"byteOffset":877112,
			"target":34963
		}
	],
	"buffers":[
		{
			"byteLength":902144,
			"uri":"Sciurus17_l4.bin"
		}
	]
}
